<svg width="167" height="109" viewBox="0 0 167 109" fill="none" xmlns="http://www.w3.org/2000/svg">
<path d="M117.165 4.53441L117.857 4.51748C119.553 5.29455 119.25 8.70145 120.194 9.73928C122.912 8.08916 124.462 10.8802 125.647 12.9986C126.744 9.24764 128.621 11.095 130.755 12.1616L130.951 12.0627C130.987 11.191 130.986 10.6855 131.632 10.0899C133.703 9.6825 132.516 11.7938 132.599 12.4438C132.956 13.0636 133.607 14.3485 134.417 14.0531C135.096 12.9379 134.683 10.8181 135.743 10.2558C137.126 10.7274 137.026 13.6247 138.397 13.294C139.358 12.3583 139.505 10.7623 139.646 9.481C139.04 8.71241 137.925 7.61091 138.251 6.61235C138.59 6.18822 139.082 6.06245 139.604 5.84831C140.144 4.7517 138.79 0.957865 140.194 0.00186184C141.79 -0.104738 141.726 4.34424 141.834 5.56574C142.487 5.58832 142.928 5.60579 143.463 5.96559C143.681 6.43644 143.679 6.21438 143.571 6.64426C143.393 6.71494 142.726 6.98353 142.649 7.08682C141.602 8.50127 143.327 11.1751 143.196 13.0869C142.865 13.3458 143.053 13.269 142.6 13.2859C141.98 12.9516 141.486 12.036 140.998 11.3755C140.052 14.054 139.068 15.9786 136.264 13.6551C134.889 16.4551 133.678 16.279 131.673 14.1044C131.429 16.0513 131.183 17.3277 129.02 17.7338C128.146 17.619 127.426 17.1956 126.633 16.8044C125.932 17.8207 125.21 18.6435 123.886 18.9318C122.472 19.2397 120.131 18.4682 119.846 16.823C119.77 16.3831 119.958 16.183 120.192 15.8579C120.591 15.6614 120.585 15.632 121.042 15.6855C121.203 16.2489 121.411 17.0032 122.051 17.0892C125.576 17.5634 125.047 15.195 123.688 13.0784C123.225 12.3568 122.428 11.1176 121.632 10.9342C120.77 11.7545 121.943 14.0541 121.124 15.3286C120.673 15.5108 120.899 15.499 120.423 15.3486C119.879 14.6279 119.774 14.1883 119.484 13.3358C119.395 13.9092 119.297 14.4809 119.19 15.051C118.844 16.7946 118.297 17.782 116.832 18.777C116.108 18.6607 115.784 18.5379 115.109 18.3016C113.552 20.0127 112.274 20.6933 110.429 19.0246C110.888 16.1885 112.014 16.2015 112.978 14.0806L112.822 13.8779C112.108 13.7551 111.004 13.9063 110.602 14.5788C110.654 14.9711 110.731 15.2126 110.578 15.5744C107.74 15.2957 111.182 11.1316 113.717 12.6968C116.793 14.5957 111.799 16.7394 112.173 18.5195L112.487 18.6805C114.291 18.609 113.935 15.9204 114.973 15.1552L115.272 15.214C115.845 15.8438 115.671 16.5728 116.234 17.4239L116.513 17.4381C118.769 15.5422 118.063 11.2952 117.74 8.72644C117.581 7.46398 116.865 5.76036 117.165 4.53441ZM129.325 16.048C130.267 14.4177 129.735 12.256 127.709 12.3211C127.175 13.4417 127.087 15.2236 128.428 15.7949C128.715 15.9177 129.016 16.0029 129.325 16.048Z" fill="#B8975B"/>
<path d="M18.5739 27.8211C19.4136 27.9916 19.7853 28.2629 20.2022 29.0302C21.9205 32.1928 22.5658 36.122 23.5761 39.5182C24.4815 39.2293 26.5301 38.3854 27.2769 38.9622L27.172 39.3046C26.1765 40.3134 25.1289 40.6314 23.8382 41.175C24.2322 43.4893 24.6479 45.9072 24.7481 48.2659C24.7838 49.1037 24.7572 49.8439 23.9956 50.3087C23.4641 50.3307 23.2479 50.0781 22.7979 49.7407C18.0129 49.7292 14.7272 51.764 10.5615 53.6882C9.16638 54.3325 4.90059 56.9481 3.54384 56.5366C3.18012 56.0509 3.25072 56.3084 3.24606 55.7637C3.68105 55.0659 10.0643 51.4806 11.1583 50.9399C10.2288 48.9028 9.05477 44.7328 8.39816 42.5446C7.69428 40.1986 6.69905 36.9402 6.2069 34.5849L3.78138 35.4564C2.75912 35.7322 -0.209726 36.554 0.0117302 34.6468C0.090053 34.5699 0.22255 34.4285 0.318926 34.4044C3.36459 33.6434 11.3389 29.3351 14.2535 30.4518C14.6357 30.8714 14.5419 30.6346 14.5801 31.1714C14.1807 31.889 8.93698 33.4874 7.79219 33.8956C9.65995 38.213 11.338 45.631 12.5747 50.2996C15.5348 48.8796 19.5519 47.805 22.8068 48.2433C22.5648 47.5288 21.2461 44.1476 21.4341 43.7205C22.0128 44.348 22.2533 45.0989 22.5788 45.8918L21.9089 41.8109C21.0396 42.0008 19.9819 42.1428 19.0886 42.285L19.2277 42.3606C18.6177 41.9511 18.4446 41.9776 18.6413 41.2733C19.3632 40.4941 20.4892 40.2763 21.5107 39.9698C20.9414 37.5727 20.288 35.1966 19.5518 32.8454C19.1348 31.4881 18.0187 29.0773 18.5739 27.8211Z" fill="#B8975B"/>
<path d="M116.562 69.5723C116.765 69.578 117.026 69.5628 117.22 69.6152C118.303 69.906 119.219 75.2883 119.653 76.4627C120.176 77.8772 120.85 79.2462 121.484 80.6132C122.333 80.0255 125.096 78.8511 125.325 78.0439C124.844 77.4035 122.539 77.4937 122.111 76.2124C121.556 74.5536 122.826 72.1374 124.776 73.3831C125.18 73.641 125.193 73.6877 125.323 74.1157C124.972 74.6312 124.732 73.9205 123.791 74.2398C123.561 74.4626 123.49 74.5803 123.443 74.8916C123.075 77.2995 126.031 75.8817 127.079 77.3702C127.664 79.8107 124.177 81.0245 122.421 81.5919L120.736 81.1904C120.137 80.5531 119.462 79.5215 118.945 78.7829C117.986 81.7271 116.575 83.0933 113.34 82.0251C111.129 84.3182 109.483 85.1575 106.373 83.8981L103.639 84.88C104.195 86.0636 105.597 88.3158 104.153 89.1624C103.574 89.1778 103.817 89.2586 103.374 89.0065L103.62 88.4939C103.618 88.1859 102.608 86.3702 102.39 85.9162C102.103 85.5995 102.274 85.6654 101.906 85.6247C101.227 86.0899 101.139 86.133 100.32 86.1614L100.081 85.7557C100.423 84.9358 100.837 84.6561 101.516 84.1699C98.9486 79.4021 96.8777 73.9119 105.047 75.6868C103.837 76.004 101.304 76.2711 100.936 77.6152C100.561 78.9793 102.347 82.1453 102.965 83.4558L105.787 82.26C105.714 80.5174 106.085 79.3191 108.056 78.6805C108.939 78.3947 109.649 79.3528 109.745 80.1506C109.855 81.0648 109.351 81.8159 108.786 82.5026L108.661 82.6527L108.736 82.8137C109.851 83.1096 111.55 81.9313 112.403 81.2901C112.323 81.1447 112.247 80.9974 112.175 80.8481C110.893 78.1792 113.314 75.0938 115.365 76.0776C116.749 78.0756 113.208 78.8305 113.398 80.0099C114.52 79.9862 113.826 80.1823 114.302 80.9038C117.052 81.5398 117.643 79.2351 118.094 77.0583C117.381 74.7415 115.917 71.9676 116.562 69.5723Z" fill="#B8975B"/>
<path d="M48.5721 70.8005L49.2027 70.8537C50.9334 71.8151 49.9561 74.7085 51.0071 76.2159C53.0807 74.7833 55.5007 76.689 56.968 78.1179C57.3181 74.1167 58.2261 75.6671 60.1372 75.5451L60.4283 75.1847C61.2771 75.1997 61.9342 75.8744 62.3375 76.6286C63.3109 78.449 61.5642 82.6784 59.1371 81.5536C58.7992 81.397 58.6038 81.339 58.2288 81.2727C57.4546 82.0146 56.8695 82.6199 55.8788 83.0909C54.6798 83.6609 52.5045 84.2583 51.782 82.686C51.8661 82.5226 51.9297 82.4047 52.0258 82.2455L52.1086 82.1104C51.4357 81.14 51.2904 80.8694 50.8407 79.7724C50.1952 82.108 49.7708 83.329 47.4253 83.5116C46.086 83.6158 46.0222 84.3626 45.3994 85.4299C44.3972 86.3113 42.2469 87.4443 41.6388 85.7435C41.0169 84.0034 43.2716 80.2929 43.9291 78.5925C43.1361 79.1154 41.8357 79.7707 41.7209 80.6239C41.6877 80.8709 41.6053 81.0331 41.4562 81.2354L41.2223 81.102C40.3622 79.26 43.1592 77.5069 44.0609 77.7492C46.8166 78.4893 42.1658 83.7901 42.8935 85.3525L43.2935 85.428C45.9315 84.7477 44.5341 83.1911 44.8157 82.4129C45.7415 82.0407 47.0561 83.0551 47.9667 82.5031C52.3933 79.8194 47.268 73.481 48.5721 70.8005ZM55.8112 81.1152C56.0669 80.8917 56.4612 80.6619 56.3839 80.2957C56.0066 78.506 53.602 77.0221 51.9168 77.1652C51.5889 78.2446 52.7433 80.627 53.1699 81.8818C53.8898 81.887 55.1564 81.4279 55.8112 81.1152ZM60.5521 79.9971C61.8122 77.7131 61.6583 76.4115 58.8775 76.1646C58.6355 76.7751 58.4943 77.1275 58.4592 77.8133C58.3998 78.9796 58.9655 81.0743 60.5521 79.9971Z" fill="#B8975B"/>
<path d="M67.7701 17.3224C68.229 17.2986 68.217 17.2776 68.6471 17.4999C69.222 18.2492 70.2247 23.6793 70.558 25.1253C71.4836 24.9192 72.4381 24.5428 73.2421 25.1633L73.2878 25.5252C72.72 26.4836 72.023 26.552 70.9352 26.9079C71.2485 28.0071 72.4631 31.583 71.8857 32.5319L71.5929 32.5758C69.9442 31.8671 68.9509 29.1222 67.4578 27.8531C67.0128 28.9333 67.4786 28.986 68.0117 30.1039C68.4676 32.1367 68.5655 35.5002 65.2769 34.7997C63.1158 34.3394 62.1585 31.0788 62.8649 29.2161C63.1853 28.3713 63.9343 27.1694 64.8084 26.7684C65.4847 26.4477 66.3173 27.0301 66.9578 27.3014C67.1026 26.9746 67.0776 26.7489 67.1059 26.3776C67.567 25.8589 68.0741 25.7461 68.7354 25.498C68.2771 23.3591 66.9099 19.1029 67.7701 17.3224ZM66.2325 33.4403C66.986 31.9014 66.3893 29.9564 66.4895 28.1937C66.0771 27.9142 65.9971 27.9384 65.3912 28.049C64.2221 29.7144 63.6516 32.8922 66.2325 33.4403Z" fill="#B8975B"/>
<path d="M31.0485 67.0786C31.3326 65.966 32.1956 59.6486 32.6009 59.302C33.2083 60.4511 32.8701 66.4947 32.3608 67.8774C32.1235 68.522 32.0746 68.6078 31.5527 68.8925C30.5041 68.8726 29.3415 68.0919 28.3913 67.56C28.3801 75.1839 24.8479 68.654 22.9006 66.5928C22.5795 66.8604 22.2845 67.1089 21.9757 67.3908C22.4729 68.7592 22.6457 69.3803 22.7059 70.8422C21.9839 72.5482 21.1807 73.2652 19.3021 72.4C19.1717 72.3406 19.0422 72.2791 18.9136 72.216C18.003 71.3988 17.7309 70.9095 17.2966 69.7695C17.3581 66.5454 18.8111 64.6718 21.6817 67.2694C22.0466 66.3034 22.1956 65.2409 23.3061 65.0741C23.9614 65.249 24.1264 65.439 24.6355 65.8766L26.6597 68.2778C26.6772 67.8016 26.6523 67.1954 26.6469 66.7077L24.9052 65.5562C24.7092 65.1682 24.6415 65.1035 24.7028 64.6682C25.4077 64.1039 26.1159 64.5173 26.794 64.9518C27.1286 63.8397 27.3223 63.2207 28.1665 62.3584L28.5386 62.3546C29.1131 63.3525 28.7227 64.5377 28.553 65.7283L31.0485 67.0786ZM21.0215 71.1002C21.4544 69.8491 21.5384 68.8787 21.6103 67.5567C21.0323 67.436 19.911 67.1493 19.3733 67.2128C18.8657 68.3317 18.739 68.9608 19.1261 70.157C19.3931 70.9818 20.2222 71.4166 21.0215 71.1002Z" fill="#B8975B"/>
<path d="M153.192 36.4814C153.415 36.4826 153.803 36.4716 153.934 36.6167C155.104 37.899 155.805 43.6108 156.068 45.24C156.459 44.1723 156.962 42.0037 158.133 41.7706L158.369 41.9332C158.711 42.8337 158.432 44.0224 158.443 44.973C158.51 50.4118 162.678 44.8387 163.726 43.5372C163.27 44.9587 162.767 45.7234 162.026 46.9949C163.411 46.0495 164.09 45.574 165.184 44.3121C163.987 43.5207 160.61 43.1056 161.073 40.8739C161.26 39.9682 161.931 39.4086 162.869 39.7547C163.081 40.3943 162.38 40.4077 162.395 41.3935C163.238 43.1071 165.918 41.8994 166.53 44.6024C166.282 45.6855 165.814 46.2222 164.906 46.9778C164.61 47.3511 162.125 48.5853 161.698 48.3564C160.57 47.7502 159.884 48.5752 158.677 48.4257C158.044 48.3472 157.417 47.4756 157.029 46.9073C156.865 47.8633 156.881 48.4129 156.181 49.0705C154.793 49.2449 154.585 46.1477 154.435 45.1335C153.304 45.775 151.631 45.9162 150.313 46.1241C150.652 47.7386 151.889 49.9632 151.808 51.1535C151.476 51.5789 151.688 51.4473 151.149 51.5508C150.102 51.1135 149.349 48.4767 148.956 47.3378C147.548 43.2611 152.49 45.2653 153.794 44.4835C154.858 43.845 152.858 37.9666 153.192 36.4814Z" fill="#B8975B"/>
<path d="M140.88 46.6384C141.261 46.6171 141.351 46.6494 141.725 46.7015C142.018 46.9611 142.17 47.0389 142.156 47.4851C142.04 49.4422 141.694 51.4799 141.183 53.3784C140.231 56.9135 138.758 57.3142 136.192 54.9158C134.796 63.2406 129.171 51.3886 129.881 50.0502L130.191 50.0236C131.324 50.5775 131.404 50.8263 131.993 51.9051C132.708 53.1844 133.43 54.4594 134.16 55.7299L134.65 53.0415C134.074 52.4338 132.578 51.0898 133.177 50.1934C133.887 50.1112 134.463 50.6422 135.023 51.0569C135.244 50.1284 135.595 48.5543 136.701 48.4911C137.275 49.2757 136.741 51.5548 136.581 52.6577C137.252 53.496 137.899 54.0285 138.76 54.6494C139.461 51.8657 139.728 49.2867 140.88 46.6384Z" fill="#B8975B"/>
<path d="M21.1366 100.362C21.5507 100.238 21.9672 100.122 22.3859 100.015C23.2041 99.8135 24.1791 99.6684 24.9221 100.113C25.5969 101.061 24.7893 102.105 24.8174 103.496C25.2873 104.587 26.6825 105.503 27.9226 105.326C30.7109 104.928 28.7749 101.958 29.5691 100.847C30.861 100.589 30.3859 100.34 31.1253 99.415C32.4959 97.7013 34.3195 97.7645 35.9396 99.0707C37.073 99.9845 37.7748 103.146 36.811 104.211L36.4979 104.172C35.523 103.222 35.4428 101.84 35.1818 100.521C34.7621 100.123 33.6667 99.3782 33.0507 99.6058C30.7501 100.455 32.9878 104.001 32.3072 105.133C31.0952 105.651 31.4811 104.84 30.8091 104.689C28.4962 106.899 29.157 106.663 25.9018 106.59C25.1254 108.13 23.7067 108.948 22.5279 107.115C21.5296 105.562 23.4035 102.926 23.8864 101.148L23.9279 100.99C23.4105 101.072 22.845 101.135 22.3741 101.373C21.7791 101.674 21.4385 102.181 20.7739 102.02C20.357 101.625 20.472 101.857 20.3829 101.319C20.5741 100.737 20.613 100.73 21.1366 100.362Z" fill="#B8975B"/>
<path d="M70.2848 64.583C70.6067 64.6318 70.6473 64.6606 70.9602 64.7626C71.7661 65.6728 72.4327 68.4416 72.9032 69.8075C73.665 69.7842 75.1921 69.5591 75.1926 70.6197C74.7066 71.1987 74.0805 71.2881 73.3441 71.4822C73.6461 72.6747 74.9566 75.5403 74.3684 76.5311L74.0164 76.5091C73.3356 76.1228 72.9538 75.3835 72.5142 74.7138C71.6793 76.8424 70.7023 77.4367 68.5712 77.4032C67.179 77.3813 67.3704 78.2393 66.5405 79.1365C65.5958 80.158 64.6495 79.4411 63.8991 78.6076C63.2082 77.4357 62.5352 75.4384 62.8843 74.0949C63.2571 73.6214 63.025 73.7663 63.5929 73.6261C64.8971 74.5276 64.012 77.8318 65.6746 78.222C66.64 77.4726 66.2297 76.2603 66.8054 75.0265C68.0645 75.1281 69.6915 78.4484 71.4857 73.7502C70.6226 73.0561 69.3141 72.3592 69.7294 71.1625C70.196 70.6533 70.522 70.5959 71.1693 70.353C70.8475 68.8904 69.6916 65.66 70.2848 64.583Z" fill="#B8975B"/>
<path d="M102.16 60.4445L102.78 60.3693C104.105 61.0002 103.055 63.5597 102.729 64.7099C103.077 65.0783 103.643 65.4808 104.058 65.7986C104.353 64.713 105.494 59.4298 106.949 59.7985C107.977 61.0253 106.719 65.1273 105.938 66.3857C104.786 68.2435 103.389 67.7346 102.014 66.6554C99.6502 71.6067 95.7192 64.8453 95.8241 63.9218C97.0486 62.5492 98.9718 65.7503 99.9491 66.7972L100.495 65.0599L99.7351 64.2769C99.2622 63.794 98.5215 62.8979 99.0899 62.2637C99.929 62.1679 100.488 62.564 101.167 63.0016C101.495 61.9672 101.659 61.3935 102.16 60.4445Z" fill="#B8975B"/>
<path d="M38.8865 93.9467C42.1487 93.1946 43.4619 97.1945 43.975 99.6242C44.9042 100.523 47.6185 102.396 47.9033 102.942L47.439 103.025L47.4547 103.036C45.7049 102.519 45.671 102.336 44.1715 101.269L44.0468 101.386C43.962 102.123 43.6542 103.445 43.0062 103.848C39.3895 106.096 35.0894 96.8072 41.5352 98.4686C41.0866 97.9188 40.6439 97.3644 40.2069 96.8053C39.6022 96.0252 38.7612 94.9437 38.8865 93.9467ZM42.5068 102.478C42.6484 101.452 42.6768 100.859 42.6937 99.8176C41.7473 99.7287 40.7979 99.5352 39.8752 99.4794C39.4709 101.348 40.727 103.563 42.5068 102.478Z" fill="#B8975B"/>
<path d="M116.983 46.1112C117.394 46.0685 117.553 46.0118 117.923 46.1968C118.654 47.3603 119.949 53.4315 120.414 55.2058C121.452 54.9508 122.353 54.7155 123.334 55.2105L123.427 55.4955C122.886 56.4057 121.823 56.4957 120.76 56.7677C121.087 58.0625 122.303 61.9291 121.636 62.9395L121.344 62.953C120.24 62.1988 120.18 61.2901 119.629 60.044L118.182 57.733C118.528 58.6923 119.779 61.6468 118.852 62.3482C117.654 61.9491 116.286 58.531 116.37 57.3829C116.813 56.9656 116.563 57.07 117.122 57.0048C117.624 57.1744 117.711 57.2841 118.078 57.6689C118.256 57.1451 118.496 56.5588 118.695 56.035C118.085 53.2926 116.887 48.7241 116.983 46.1112Z" fill="#B8975B"/>
<path d="M93.2751 17.2695C94.3119 17.1212 94.9559 17.2285 95.7441 17.946C95.4654 18.3813 94.7333 18.1618 93.8656 18.6459L93.794 18.9372C94.6658 20.5614 99.9074 21.2297 98.6256 23.8499C98.3132 24.4884 96.1984 25.3618 95.4692 25.4735C94.3661 25.6424 93.7716 25.2693 92.9501 24.6397C92.1846 24.7536 91.402 24.7872 90.6288 24.8358C89.5375 30.089 84.2229 24.5966 84.5325 21.8159C84.5749 21.4361 85.0479 21.2585 85.3419 21.1017C85.704 21.4335 86.6577 22.4218 86.7778 22.8635L86.37 23.2044C86.693 24.0973 87.9208 25.4719 88.9467 25.3705C89.6021 24.4541 88.945 23.1973 89.4416 22.2771L89.7231 22.2145C90.3327 22.687 90.3921 22.9374 90.6822 23.6278C91.2149 23.7725 91.3882 23.8126 91.9368 23.8528C93.0694 23.1588 92.2717 22.4824 92.9269 21.4558C93.4127 21.2163 93.1696 21.252 93.6721 21.295C93.8593 21.8435 93.3757 22.2916 93.456 23.1417C94.2886 23.4343 94.1672 23.7511 94.9986 24.0544C95.8404 24.0104 96.9733 23.1904 97.6785 22.718C95.9189 21.9051 89.8165 19.9897 93.2751 17.2695Z" fill="#B8975B"/>
<path d="M103.35 95.88C113.429 87.655 123.322 83.3068 135.831 79.8438C136.392 79.8736 137.46 79.7325 137.7 79.8065C136.088 80.5598 132.478 81.6301 130.588 82.3222C125.896 83.8354 121.781 85.8765 117.339 87.9726C111.644 90.6602 107.237 95.0219 101.809 97.849C101.553 97.9825 101.161 97.7727 100.953 97.6061C100.89 96.3326 102.097 95.9543 103.146 95.8913L103.35 95.88Z" fill="#B8975B"/>
<path d="M96.4258 6.30777C96.8878 6.23847 96.8893 6.23126 97.348 6.28873C97.7378 6.72478 98.0747 9.05153 98.2845 9.84114C98.7712 11.6731 99.3324 13.495 99.7998 15.3282C100.758 15.3348 102.072 15.1756 102.56 16.1433L102.401 16.4984C101.831 16.9814 101.129 17.0261 100.369 17.1766C100.77 18.836 101.927 21.4131 101.468 22.7844C100.289 22.5904 96.389 18.6408 96.4624 17.2649C96.8252 16.3179 97.4557 16.12 98.3509 15.6744C97.602 13.3592 95.7934 8.51795 96.4258 6.30777Z" fill="#B8975B"/>
<path d="M73.2517 42.1937C74.1372 42.2838 74.1273 42.264 74.4624 43.0219L74.3926 43.2112C74.2843 43.504 74.0356 44.0048 74.0497 44.2829C74.1168 45.6134 74.7052 50.426 75.467 51.3048C76.1341 50.0717 75.1963 46.2671 77.7333 46.503C79.0325 47.7979 76.2214 50.1645 79.4578 51.8597C80.3456 51.9679 80.8316 51.6189 81.7101 51.7653C82.2201 54.5279 78.055 52.8946 76.9621 52.5954L76.6339 52.9583C73.3529 56.6341 72.3992 45.9901 72.5307 44.4895C72.6193 43.4782 72.5291 43.0182 73.2517 42.1937Z" fill="#B8975B"/>
<path d="M56.9374 28.3533C60.3553 27.5715 61.6861 31.9317 62.6859 34.3828L63.2817 34.5091C63.4345 35.0337 63.4224 34.7678 63.2606 35.3348C61.8403 36.7043 60.6593 34.521 60.1796 33.4066C59.5904 32.0379 59.0434 30.9281 57.7825 30.0729C56.1544 32.4194 60.5204 36.9098 58.4139 38.1257C56.2836 38.1604 55.5278 32.8318 54.9305 31.0725C55.7436 30.0075 55.8639 29.1408 56.9374 28.3533Z" fill="#B8975B"/>
<path d="M71.9311 87.8992C72.3204 87.9482 72.2963 87.9337 72.5912 88.191C72.9783 89.2423 72.5254 92.0173 72.3838 93.213C73.1078 93.5678 73.7411 93.9416 74.5355 93.9197C75.9005 93.1344 75.1929 89.1403 76.1343 87.5878L76.4233 87.5185C77.492 88.3602 77.1117 92.1597 76.5806 93.3243C75.4972 95.6996 74.1399 95.4101 72.1595 94.5301L71.6825 95.9568C70.1637 97.0238 69.0973 95.8351 68.007 94.733C67.2811 93.9992 65.7056 91.9646 66.206 90.9001C67.054 91.0304 68.3731 93.2471 69.0616 93.9191C69.5238 94.3702 69.9351 94.7379 70.4301 95.1581C70.615 94.6382 70.7058 94.1836 70.8269 93.6486C70.1392 93.098 68.4217 91.8708 68.8211 90.8592C69.6307 90.7761 70.3727 91.5984 70.9356 92.1147C71.1272 90.7467 71.2418 89.0639 71.9311 87.8992Z" fill="#B8975B"/>
<path d="M81.2491 24.2939C81.4938 24.317 81.709 24.3635 81.95 24.4084C83.9359 26.2834 87.0932 27.5588 88.1797 30.1655C89.7532 34.0681 84.7096 36.8359 81.564 35.0668C80.177 34.2869 79.589 33.2855 79.1611 31.8253C79.1912 31.2857 79.2559 29.4455 79.553 29.0875L79.5399 28.9255C80.3573 31.7871 80.5271 33.6745 83.9687 33.9532C85.7645 33.2122 86.3018 32.9856 86.771 31.0591C84.9455 28.1388 83.0744 28.1501 81.2087 25.6453C80.9246 25.2637 81.1099 24.7224 81.2491 24.2939Z" fill="#B8975B"/>
<path d="M82.0015 60.8697C82.4408 60.7602 82.6715 60.6432 83.0744 60.8294C84.1549 61.9584 84.4172 65.377 85.0818 65.7332C85.4169 65.6154 85.7535 65.5013 86.0912 65.3911C88.6483 64.5676 90.3492 71.2631 89.4431 72.7544L89.1904 72.8024C88.2325 72.1678 87.9194 70.3619 87.6576 69.2721C87.394 68.4912 87.1167 67.3695 86.2466 67.1216C85.5595 68.1886 87.4287 71.5711 86.0448 72.2708C85.7631 72.2023 85.5213 72.0493 85.3095 71.8518C84.354 70.9607 82.0092 62.4252 82.0015 60.8697Z" fill="#B8975B"/>
<path d="M13.4661 67.5713C13.306 69.6218 13.9213 70.5732 13.9941 72.4747C14.0121 72.9461 13.1012 73.033 12.581 72.7638C12.3401 72.3558 11.9142 71.3819 11.8114 70.931C11.3731 69.0101 9.11098 65.2258 9.47489 63.3336C9.80812 62.9975 9.6603 63.0988 10.222 63.0314C11.3194 63.468 11.4914 65.1652 12.0519 66.2048C12.4368 66.9183 12.9405 65.8181 13.9622 66.1371C15.3967 66.5849 16.419 69.0814 17.0957 70.4034C17.5693 71.5762 17.5109 71.9859 18.7493 72.3898C18.3924 73.1776 18.3594 73.2994 17.5269 73.4012C15.9881 72.8863 14.6527 69.2962 13.4661 67.5713Z" fill="#B8975B"/>
<path d="M32.7392 34.4C33.7938 34.1527 34.6672 35.0291 34.7706 35.9857C34.1299 35.8906 33.8381 35.8059 33.4107 36.3209C33.3916 36.8042 33.686 37.646 33.8549 37.7288C35.8831 38.7179 38.2131 39.0055 39.3191 41.2618C40.5315 43.7352 37.8669 45.2379 35.9847 45.9946C35.0439 46.2834 33.656 46.6656 33.1944 45.5332C33.5742 43.5795 38.4805 43.9397 37.5119 41.5197C36.8554 39.88 32.6869 40.0343 32.1994 37.7073C31.9202 36.3742 32.1424 35.5085 32.7392 34.4Z" fill="#B8975B"/>
<path d="M67.7096 50.9614C70.9052 50.0361 74.8458 53.0319 71.6565 56.6179C68.0021 58.5493 65.0476 54.2739 67.7096 50.9614ZM70.6509 55.5276C71.939 53.4866 71.4972 52.04 68.884 52.172C68.5033 52.6555 68.3222 53.138 68.3732 53.768C68.4132 54.2974 68.6609 54.7894 69.0627 55.1365C69.487 55.4974 70.1064 55.6687 70.6509 55.5276Z" fill="#B8975B"/>
<path d="M51.4564 90.0886C52.9077 89.9128 53.5098 92.0027 54.111 93.1851C56.6646 87.3869 61.5256 98.0143 59.8799 99.0681C59.1768 98.7647 58.5178 96.8684 58.1528 96.0521C57.7918 95.0687 56.9863 93.2946 55.9185 92.9713C54.6159 94.0211 56.9879 97.9186 55.536 98.9493C54.5294 98.8325 54.1788 97.6472 53.875 96.7783C53.1719 94.7675 51.5999 92.1732 51.4564 90.0886Z" fill="#B8975B"/>
<path d="M62.3519 51.7816C65.3227 51.4504 68.2476 55.452 64.792 58.1009C64.2942 58.2434 63.8803 58.3306 63.3553 58.2836C62.5569 58.2101 61.8272 57.8012 61.3477 57.1586C60.0978 55.4846 60.6025 52.9362 62.3519 51.7816ZM64.0179 56.9491C65.7273 55.3011 64.9135 52.8187 62.9037 52.7141C61.8293 54.3241 61.4409 56.7091 64.0179 56.9491Z" fill="#B8975B"/>
<path d="M82.7965 45.0985L82.9413 45.0576C83.6317 44.8681 83.9043 44.7592 84.4823 45.0886C84.5175 45.9829 83.5235 46.1448 82.7791 47.3481L82.6741 47.5205C83.9381 48.1323 89.6404 48.8478 87.8163 52.0774C87.064 53.4091 84.9269 53.865 83.5111 54.1661C82.8574 54.2453 82.4184 54.2882 81.8469 53.9825C81.5639 53.5441 81.6043 53.7738 81.7095 53.2727C82.9642 51.7119 85.364 52.0667 85.9216 50.8877C85.3975 49.4289 77.584 48.8896 82.7965 45.0985Z" fill="#B8975B"/>
<path d="M43.0994 51.4483C43.5044 51.4159 43.4767 51.41 43.8567 51.5516C44.5003 52.1987 45.6923 56.8201 46.151 58.1648C46.9145 57.8652 47.9211 57.3762 48.6137 57.9752L48.565 58.3454C48.1348 58.971 47.4233 59.2292 46.7204 59.589C47.1754 60.9038 47.5403 61.8948 47.8197 63.2632C47.5766 63.7263 47.4828 63.7086 47.0439 63.6999C46.3493 63.3578 46.4332 62.8282 45.9389 62.3215C45.0789 61.4397 43.1221 61.2646 43.301 59.8175C43.6099 59.3052 44.0214 59.1054 44.5275 58.7686C43.7917 56.9596 42.3772 53.2352 43.0994 51.4483Z" fill="#B8975B"/>
<path d="M18.8406 77.7934C19.3103 77.741 19.3786 77.7053 19.798 77.9392C20.873 79.2404 22.1435 84.3998 22.6469 86.3053C23.232 86.0307 23.881 85.6237 24.4693 85.7758L24.4612 86.0709C24.0221 86.7854 23.5771 87.0748 22.9209 87.5949L23.6754 91.2201L23.5498 91.7385L23.2856 91.896C22.5464 91.711 19.78 89.0206 19.7254 88.4054C20.0416 87.8056 20.574 87.5169 21.1402 87.1112C20.6387 85.1304 18.8811 79.4416 18.8406 77.7934Z" fill="#B8975B"/>
<path d="M143.857 47.0771C145.474 46.6488 146.847 46.2689 148.05 47.8878C148.531 48.5449 148.717 49.3721 148.566 50.1723C148.369 51.2483 147.946 51.6157 147.122 52.1599C143.539 53.1087 140.626 49.8476 143.857 47.0771ZM145.696 51.0231C146.127 50.9182 146.62 50.8542 146.845 50.4313C147.359 49.4647 146.852 47.9559 145.924 47.437L145.342 47.4873C143.526 48.8274 143.136 50.28 145.696 51.0231Z" fill="#B8975B"/>
<path d="M28.3258 81.4808C28.871 81.4213 29.1226 81.4641 29.3972 81.9272C29.3116 82.6943 28.6044 83.2527 28.2983 84.2218C28.7804 85.5617 32.6025 85.4651 32.8426 87.9621C32.9143 88.66 32.7032 89.3577 32.2564 89.8989C31.2394 91.1183 29.4337 91.3687 27.9695 91.5507C27.3086 91.4118 26.7424 91.4031 26.5001 90.7125C27.354 89.6424 31.4488 89.865 31.4213 87.8576C30.6463 86.6981 28.5017 86.6958 27.3907 85.6506C26.9799 85.2623 26.7536 84.7178 26.7678 84.1528C26.8052 83.0093 27.5871 82.2328 28.3258 81.4808Z" fill="#B8975B"/>
<path d="M86.3602 79.0118C86.6072 79.0103 86.812 79.0317 87.0568 79.0513C88.4178 80.0019 89.7401 83.3387 90.4662 84.9263C91.2021 84.6717 91.9687 84.3052 92.6944 84.5776L92.7374 84.8422C92.2878 85.4776 91.5946 85.8484 90.9308 86.2885C91.5003 87.7466 91.8323 88.9301 92.211 90.4225C92.0648 90.9145 92.2095 90.7489 91.8275 90.9855C91.4642 90.8493 91.0751 90.5459 90.9953 90.1674C90.6608 88.5818 87.8533 88.3279 87.9615 86.8325C88.2946 86.2506 88.6907 86.0414 89.2382 85.6469C88.5175 84.1114 86.3585 80.4266 86.3602 79.0118Z" fill="#B8975B"/>
<path d="M62.897 92.2863C63.4488 92.3081 63.8017 92.311 64.2921 92.5826C64.9845 92.9713 65.4755 93.64 65.6387 94.4172C65.8314 95.2749 65.6429 96.1741 65.122 96.8823C64.506 97.7321 63.9004 97.7959 62.9593 97.9156C61.7692 97.5225 60.4767 97.0215 60.3151 95.6209C60.0879 93.6535 60.7462 93.1116 62.4115 92.8441L62.5579 92.8215L62.897 92.2863ZM64.0469 96.2971C64.2142 95.7111 64.3907 95.1478 64.4953 94.5472C62.8647 92.6827 63.326 94.0831 62.0378 93.564C60.8219 95.5998 62.4453 97.3912 64.0469 96.2971Z" fill="#B8975B"/>
<path d="M93.6493 65.1683C97.9609 65.9997 95.0167 74.974 90.6827 70.6611C89.9549 69.9368 89.949 68.7858 90.0418 67.8121C90.5447 66.7612 91.2068 65.5099 92.6313 66.0249C93.0359 66.4097 93.0251 66.2786 93.1005 66.723C92.3452 67.3469 91.3998 68.1517 91.5502 69.2275C91.9141 69.8964 92.8844 70.2677 93.5622 69.9101C94.8108 68.092 93.136 66.7102 93.6493 65.1683Z" fill="#B8975B"/>
<path d="M56.5634 48.4964C57.0125 48.3745 57.3961 48.2246 57.8531 48.3013C58.0236 50.9228 60.0217 56.3152 60.8508 59.0058C61.062 59.691 61.3265 59.0699 61.0556 60.2493C58.6602 59.7784 55.9824 50.5305 56.5634 48.4964Z" fill="#B8975B"/>
<path d="M25.1084 25.1887C25.5301 25.121 25.6447 25.0654 26.0342 25.2461C26.7353 26.6615 27.4273 32.7234 27.9984 34.6057C28.2188 35.3324 28.8523 36.8789 28.7233 37.4578C28.0299 37.3466 27.6328 37.235 27.2335 36.5909C25.8786 34.4056 24.6607 27.5444 25.1084 25.1887Z" fill="#B8975B"/>
<path d="M16.7609 85.6486C18.2449 85.7899 18.0578 86.7401 18.3629 87.8984C18.6343 88.9473 18.7927 90.1615 19.0915 91.187C19.5351 92.7092 20.2513 92.3655 19.8191 94.0415C17.7002 92.9787 17.0966 89.3315 16.5771 87.1817C16.4382 86.6066 16.5105 86.1845 16.7609 85.6486Z" fill="#B8975B"/>
<path d="M40.6111 59.8854L41.2013 59.9698C42.1319 60.7148 41.7536 62.9418 42.4483 64.1855C42.7042 64.0967 42.7863 64.0752 43.0524 64.0249C43.2979 64.5375 43.2163 64.9672 42.878 65.3981C40.7013 65.3907 39.7114 61.2499 40.6111 59.8854Z" fill="#B8975B"/>
<path d="M84.8098 86.0986C85.8134 86.1967 85.6411 86.4275 85.8697 87.2546C86.1363 88.2192 86.4191 90.2499 87.3431 90.7149L87.7504 90.2645C88.091 90.6206 88.0273 90.7647 88.1669 91.3272C87.9673 91.9221 87.9412 92.0337 87.366 92.1253C85.7877 91.4947 84.3183 87.6697 84.8098 86.0986Z" fill="#B8975B"/>
<path d="M23.6073 75.9783L24.0613 76.0015C24.5438 76.4594 24.2361 78.3887 24.4848 79.1497C24.824 80.1873 25.063 81.1796 25.6431 82.1258L25.7339 82.2709L25.6372 82.6272C23.195 81.4574 22.7862 78.3067 23.6073 75.9783Z" fill="#B8975B"/>
<path d="M92.3547 50.817L93.0329 50.6995C93.5493 50.8754 93.3517 50.7183 93.6346 51.2009C93.6871 52.3072 92.652 53.9657 92.1081 55.0022C92.0129 55.0849 91.7463 55.237 91.6256 55.3111L91.346 55.2438C90.6497 54.2154 91.7905 51.783 92.3547 50.817Z" fill="#B8975B"/>
<path d="M15.1004 81.8141C15.6741 81.6785 16.518 81.7021 16.9168 82.1892L16.8583 82.4802C15.5091 83.0453 15.4479 83.6722 16.2999 84.9216L16.5491 85.0763L16.5128 85.2559C16.1496 85.3464 15.9822 85.4009 15.6217 85.2515C15.2755 85.1041 15.0006 84.8272 14.8559 84.48C14.4878 83.5779 14.7331 82.6495 15.1004 81.8141Z" fill="#B8975B"/>
<path d="M39.2701 55.2888C39.8765 55.3299 40.0967 55.3734 40.576 55.7177C40.5174 56.3023 40.0047 55.943 39.6855 56.7399C40.0024 57.0652 40.2434 57.3292 40.5351 57.6773C39.9331 57.9205 39.4349 57.8596 38.8697 57.5651C38.1329 56.6567 38.6655 56.0308 39.2701 55.2888Z" fill="#B8975B"/>
<path d="M114.148 50.026C114.584 49.9818 114.569 49.9668 115.006 50.121C115.404 50.8921 114.872 51.5181 115.555 52.9221L115.327 53.0037C113.98 52.6449 113.98 51.2023 114.148 50.026Z" fill="#B8975B"/>
<path d="M24.9052 65.5562L26.6469 66.7077C26.6523 67.1954 26.6772 67.8016 26.6597 68.2778L24.6355 65.8766L24.9052 65.5562Z" fill="#B8975B"/>
<path d="M78.6116 19.6122C78.8079 19.5614 79.006 19.5177 79.2055 19.4815C79.7858 19.3803 80.119 19.4716 80.5934 19.8012L80.5768 20.0685L80.1248 20.1598C80.0771 20.6715 80.169 20.5824 79.8801 20.834C79.0093 20.8608 78.6352 20.4439 78.6116 19.6122Z" fill="#B8975B"/>
<path d="M135.831 79.8438C137.155 79.3828 137.958 79.0489 139.375 78.9261L139.541 79.0413C138.759 79.5118 138.58 79.5579 137.7 79.8065C137.46 79.7325 136.392 79.8736 135.831 79.8438Z" fill="#B8975B"/>
<path d="M17.0957 70.4034C17.157 70.2664 17.248 69.9293 17.2966 69.7695C17.7309 70.9095 18.003 71.3988 18.9136 72.216L18.7493 72.3898C17.5109 71.9859 17.5693 71.5762 17.0957 70.4034Z" fill="#B8975B"/>
</svg>
