<svg width="24" height="26" viewBox="0 0 24 26" fill="none" xmlns="http://www.w3.org/2000/svg">
<path d="M6.00208 2.04525C5.50537 1.43799 5.23302 1.11803 5.35453 0.341692L5.77122 0.305097C6.50153 0.71578 6.62572 1.21593 6.99394 1.99017C9.98923 5.14232 10.8473 10.1085 17.0343 8.60998C16.8631 9.26596 16.9475 9.1069 17.3062 9.90001C17.3161 10.5199 17.2257 11.0659 17.5617 11.5334C15.9993 13.6143 15.6361 14.3885 15.9204 17.0913C16.0933 18.7278 16.6567 19.4041 16.9276 20.6408C17.4509 21.9707 18.3738 23.4792 18.2501 24.9221C17.3312 24.824 15.7811 22.2472 15.1689 21.4383C13.6703 19.4592 12.4415 18.2689 10.3455 16.9359C6.68642 16.4956 3.7761 18.2611 -2.63659e-05 19.1406C2.09512 16.3815 5.85654 14.7837 7.16925 11.5451C8.41413 8.46979 7.17829 4.92495 6.00208 2.04525ZM15.2661 19.6716C13.828 15.5167 13.9988 13.3259 17.137 10.1237C15.5341 10.0523 13.3093 10.0817 11.8453 9.41784C10.9702 9.02051 10.3631 7.82734 9.25511 7.66546C7.92495 9.18129 10.2248 11.2356 6.06364 15.727C10.7962 14.2496 12.4957 16.5124 15.1859 19.7169L15.2661 19.6716Z" fill="#B39955"/>
<path d="M17.3062 9.90001C17.3161 10.5199 17.2257 11.0659 17.5617 11.5334C15.9993 13.6143 15.6361 14.3885 15.9204 17.0913C16.0933 18.7278 16.6567 19.4041 16.9276 20.6408C16.5923 20.5124 15.6262 19.8859 15.2661 19.6716C13.828 15.5167 13.9988 13.3259 17.137 10.1237L17.3062 9.90001Z" fill="#C1A35A"/>
<path d="M6.00208 2.04525C5.50537 1.43799 5.23302 1.11803 5.35453 0.341692L5.77122 0.305097C6.50153 0.71578 6.62572 1.21593 6.99394 1.99017C7.21061 2.57212 7.5789 3.18701 7.3872 3.64823C6.84097 3.10391 6.49311 2.557 6.00208 2.04525Z" fill="#C1A35A"/>
<path d="M17.0343 8.60998C18.1149 8.36209 21.037 7.5483 21.8728 7.60167L21.9783 7.79806C21.3596 8.66506 19.1193 10.2078 18.1152 10.9519L17.5617 11.5334C17.2257 11.0659 17.3161 10.5199 17.3062 9.90001C16.9475 9.1069 16.8631 9.26596 17.0343 8.60998Z" fill="#C1A35A"/>
<path d="M17.3062 9.90001L17.825 9.56052L18.0913 9.75604C18.1031 9.99954 18.1629 10.7635 18.1152 10.9519L17.5617 11.5334C17.2257 11.0659 17.3161 10.5199 17.3062 9.90001Z" fill="#B39955"/>
<path d="M5.17077 19.8967L5.42621 19.9773C5.57883 21.457 4.58085 23.1045 3.92143 24.4739C3.61223 24.4245 3.76189 24.4818 3.51469 24.2062C3.75213 22.8725 4.39306 21.0027 5.17077 19.8967Z" fill="#C1A35A"/>
<path d="M19.608 14.3738C20.7872 14.201 22.6917 14.5555 23.4109 15.5966C22.1569 15.6988 20.371 15.4582 19.608 14.3738Z" fill="#C1A35A"/>
<path d="M14.9666 8.19739e-05L15.1276 0.332664C15.1633 1.34987 14.572 2.3361 14.1667 3.34246L13.8834 2.82765C13.9725 1.78638 14.4934 0.939721 14.9666 8.19739e-05Z" fill="#C1A35A" fill-opacity="0.968627"/>
<path d="M10.6697 22.8923L10.9197 23.0841C10.8955 23.8627 10.4904 24.4753 10.1299 25.1892C10.0005 25.1949 9.98096 25.1286 9.82478 25.0071C9.87768 24.308 10.3435 23.5464 10.6697 22.8923Z" fill="#B39955" fill-opacity="0.94902"/>
</svg>
