<svg width="117" height="76" viewBox="0 0 117 76" fill="none" xmlns="http://www.w3.org/2000/svg">
<path d="M2.8698 20.0217C4.35687 21.7959 7.88177 33.5059 5.87882 34.607C2.3227 34.4596 -0.205327 24.8968 0.0131439 21.9035C0.488639 15.3493 14.3349 12.1181 13.5198 21.0285C13.2683 23.7721 11.9868 25.5937 9.87737 27.2766C10.7054 27.9231 11.7849 29.0837 12.5523 29.8601C13.5675 28.2253 15.1188 26.4162 17.2026 26.4615C18.0746 26.4804 18.6401 26.3737 19.1945 27.0918C18.9558 28.6036 14.4616 28.8966 14.6672 30.611C15.7798 31.576 18.2876 31.3646 19.7581 31.3344C20.3989 30.665 21.1626 30.2051 21.9337 29.6883C23.1141 30.2583 21.9373 29.944 22.5836 31.3127C23.3914 31.5407 24.4855 30.9257 24.8729 30.1858C24.2395 28.1527 19.1137 27.8658 20.8119 25.0475C22.4587 23.7855 24.6765 25.0884 24.5571 27.1711C23.8815 26.501 23.406 25.9434 22.3963 25.8338C22.5524 26.9106 23.663 27.1171 24.357 27.6853C25.1207 27.9842 25.5797 27.5814 26.0424 26.9319C26.7584 25.9302 30.8377 22.9384 30.7881 25.9506C30.1235 27.1799 28.0123 28.1419 26.6427 29.1959C29.817 30.0858 31.9172 29.4671 35.0878 29.8697C31.9117 31.0685 30.0207 31.5093 26.6244 31.2137C24.6765 33.1376 22.2531 34.2422 19.8187 32.4032C18.3647 32.5886 16.6793 32.6656 15.1886 32.7937C14.9885 33.1282 14.8967 33.229 14.6433 33.5288L14.1403 33.5677C12.6294 32.8359 8.01946 28.4437 6.93262 27.1233C7.36405 26.0332 10.2042 25.1764 10.944 23.5597C11.6307 22.0581 12.5302 19.8289 11.2855 18.352C9.06775 15.7184 4.84705 18.358 2.8698 20.0217ZM4.25039 30.6415C4.26691 29.1658 2.90651 22.3283 1.81049 21.3601C1.61588 24.4409 2.69906 28.0154 4.25039 30.6415Z" fill="#B8975B"/>
<path d="M52.6976 42.4351C53.6871 42.5873 54.4123 43.0658 54.3095 44.1985L53.968 44.318C53.4613 44.0836 53.1951 43.8782 52.6682 44.1884C50.9719 45.1848 49.4903 48.3234 52.5489 48.6019C53.8414 48.7196 55.7213 48.1606 56.7109 47.2795C57.0964 46.9364 57.1937 46.8553 57.6545 46.598L57.8179 46.7923C57.3075 49.4419 51.3262 50.9926 49.5509 48.8984C48.789 48.0012 48.9634 47.057 49.0589 46.0129C48.7743 45.8567 47.0816 45.583 46.4978 45.421C46.6135 46.7251 47.1661 47.8806 46.6741 49.0358C46.171 49.4185 46.4262 49.375 45.9158 49.3154C45.7084 49.0047 45.5964 48.7644 45.2696 48.5915C43.8431 50.0106 42.7085 51.5328 40.858 49.9258C40.1456 49.2933 39.7693 49.7064 39.0882 50.2276C38.3777 50.8885 37.3514 50.5876 36.4445 50.6961C33.1124 51.0949 31.9594 51.1336 28.8347 50.1694C27.746 51.8298 27.0209 52.0266 24.972 52.217C22.5487 52.4421 16.6206 53.2363 15.1408 50.7657C14.7204 50.076 14.6139 49.2403 14.8453 48.4666C15.4346 46.5039 17.5605 45.3425 19.5268 46.041C19.9894 46.5789 19.8591 46.2722 19.9013 47.0054C19.2661 48.7516 16.7784 48.2994 16.7417 49.6873C17.6633 50.8272 18.7667 50.9348 20.1877 51.3156C20.4631 51.3477 20.8009 51.3492 21.0836 51.3595L21.2782 51.049C21.1809 50.6299 21.0579 50.3156 21.1662 49.9076C22.1558 49.4791 26.5252 51.3444 26.7528 49.3748C25.7302 47.9021 19.9637 45.8598 23.5455 42.8409C25.3098 42.4698 26.1507 44.6127 26.6996 45.9314C25.8881 45.3641 25.2749 44.7548 24.346 44.7179L24.1697 44.9474C24.6765 46.1304 25.4989 46.4646 26.5968 47.1093C28.7962 46.5413 29.5911 45.2338 31.7795 45.3818C32.5249 45.4322 33.2354 45.5709 33.7274 46.1756C33.7696 47.9869 30.1639 47.993 28.8384 48.0908C30.4136 49.2454 33.9532 50.568 35.7156 49.3899C35.8019 48.8624 35.9378 47.8556 36.1067 47.3904C36.3343 46.7677 37.2229 46.07 37.4542 45.421C36.7951 45.3215 36.4298 45.3179 35.8607 44.9823C35.5504 44.4232 35.5669 44.6964 35.723 44.1447C36.5087 43.5598 38.5943 43.7763 39.213 44.4908C40.4173 45.8837 37.4506 47.1903 37.4267 48.4549L37.9407 48.7136L37.9481 49.2487L38.3318 49.2821C39.7362 48.501 39.0845 47.6025 39.9584 46.1299C40.5477 45.7974 40.2613 45.8185 40.8341 45.9524C41.4583 46.9933 40.8745 48.4778 41.8328 49.2302C42.6681 49.4121 43.6999 48.5795 43.9992 47.9116C45.7506 44.0089 45.1539 43.4474 49.4738 45.0109L49.5913 44.8268C50.489 43.4408 51.06 42.7858 52.6976 42.4351Z" fill="#B8975B"/>
<path d="M8.11867 39.8816C10.1473 39.7287 12.209 39.6659 13.5658 41.5385C14.1239 42.3035 14.3295 43.2705 14.1312 44.1965C13.7512 45.9382 12.4422 46.7857 11.0689 47.6633C13.07 49.0101 13.8999 51.2354 15.8129 51.8122L15.8312 52.1276C15.4696 52.6613 15.5063 52.66 14.9151 52.8776C13.6814 52.7788 12.7359 51.5357 11.8363 50.6194C10.8119 49.7409 10.1987 49.3971 9.02377 48.7027C9.25693 49.9537 9.80585 51.7944 8.92095 52.8376C6.16712 53.6145 2.71748 44.9454 3.90897 42.6711C4.80488 40.9602 6.55082 40.4538 8.11867 39.8816ZM8.89892 46.5878C10.4961 45.9153 12.4881 45.0829 12.31 42.9819C11.7225 41.7195 10.3658 41.6812 9.13576 41.7012C8.49687 41.8844 6.53247 42.4801 6.1047 42.88L6.05881 43.2312C6.85558 43.9995 7.38432 44.2711 7.82493 45.2626C8.07645 45.8268 8.23801 46.4514 8.70249 46.6623L8.89892 46.5878ZM7.39715 49.6097C7.12361 48.2517 6.79866 45.8028 5.59248 45.0421C5.97986 46.5667 6.46819 48.3141 7.39715 49.6097Z" fill="#B8975B"/>
<path d="M7.39715 49.6097C7.12361 48.2517 6.79866 45.8028 5.59248 45.0421C5.97986 46.5667 6.46819 48.3141 7.39715 49.6097Z" fill="#B8975B"/>
<path d="M92.015 59.138C93.392 58.972 94.4421 58.8771 95.461 60.0449C95.4463 60.1624 95.4316 60.2799 95.4169 60.3974C93.8638 60.9427 92.2996 61.1318 91.0347 62.2884C90.0451 63.1917 89.6559 64.5429 89.4925 65.8299C89.4503 66.1713 89.7092 66.2925 89.9607 66.5165C92.4171 66.6652 96.1697 62.8777 96.9132 62.83C96.9848 64.6292 90.9943 69.6283 88.9326 68.4056C86.9094 67.2068 87.3317 64.6182 88.2276 62.8392C87.5777 62.8171 83.4726 62.2352 83.5424 62.2278C83.3772 63.5221 84.4108 66.7441 83.5131 67.4767C82.5602 67.1884 82.3601 66.2172 82.0296 65.3635C80.5205 66.1567 80.0946 66.3384 78.4001 66.3916C77.5831 66.3035 76.9553 66.0281 76.2356 65.6353C74.9303 67.0581 72.2003 68.7581 70.7793 66.6211C70.4268 64.4456 72.5344 62.9603 72.8906 61.7725C71.7726 61.5026 71.2163 62.6207 70.1735 61.8515C69.955 61.163 69.9422 61.4861 70.1459 60.8472C70.7242 60.3589 71.2328 60.2432 71.9727 60.2175C79.5989 59.9498 72.6336 63.9003 72.4151 65.9327C74.2565 67.3151 75.0533 64.2767 75.8427 63.5148C76.8708 62.5197 76.9332 67.4198 81.5358 63.9407C81.5138 62.942 81.3706 61.4531 82.2554 60.8307C83.7131 59.8044 87.1903 61.1593 88.9326 61.4512C89.9992 60.2891 90.5849 59.7938 92.015 59.138Z" fill="#B8975B"/>
<path d="M26.5454 59.9286C26.8502 59.9491 27.0925 60.0013 27.3918 60.0542C28.1096 60.6453 28.2675 61.3907 28.5741 62.226C29.9987 66.1071 28.3428 70.651 33.2299 72.2776C33.2097 72.8137 33.3015 72.5732 32.8664 72.9881C30.924 73.5315 29.6609 71.4459 28.7081 70.069C28.24 70.9778 27.9003 71.4808 27.1293 72.1583C25.4825 73.6068 24.6196 72.1216 23.1601 71.9802C22.7286 72.4282 22.6313 72.6154 22.0603 72.7604C20.3236 72.2078 19.6333 68.5617 18.5244 66.8084L18.4124 66.6359C17.6634 68.3781 18.7833 70.763 18.2656 72.7623C17.8305 73.2929 18.1022 73.1111 17.3935 73.2763C15.6127 72.3143 15.7651 65.9419 17.6304 65.1249C20.6743 63.7957 21.6161 70.9245 22.6827 71.4606C22.9342 71.0898 22.6075 69.7642 22.769 69.1914C23.4483 66.7791 24.2359 65.6243 26.4922 64.8293C27.3128 63.6231 25.7505 61.7946 26.5454 59.9286ZM25.5596 71.3872C27.3716 70.181 28.9431 67.4235 26.4738 66.0576C25.1979 67.2362 23.4703 69.4173 24.7462 71.0989C25.0859 71.2348 25.2089 71.2936 25.5596 71.3872Z" fill="#B8975B"/>
<path d="M55.7636 62.4334C56.5035 62.5307 57.4746 62.3325 57.8455 62.6078L57.3755 63.4065C57.7684 63.9003 59.1141 64.1941 59.496 64.6035C64.0838 69.509 57.0506 70.9979 53.6358 70.9979C50.1642 70.9979 47.3883 71.378 46.1325 67.6933C44.561 67.3996 43.0427 67.0856 41.5924 66.4008C41.9926 67.6089 43.4466 71.1797 41.9522 71.8406C40.6359 71.2403 40.2045 69.0041 39.8648 67.7043C38.8955 62.3802 42.7306 64.8458 45.9893 65.6977L46.1968 65.2222C46.6264 64.2216 46.6796 63.8085 47.7738 63.5662C50.4561 64.1445 48.2695 66.1016 48.1392 67.2398C48.3099 67.8438 48.7377 68.2422 49.2279 68.6388C51.9505 70.8492 53.8414 68.0201 55.8077 67.8236C56.0096 68.3193 55.6002 68.0036 55.3524 68.7379C56.4943 68.3304 59.5106 68.9582 59.3362 67.249C59.1141 65.0882 55.6167 65.4094 53.9938 64.172C53.5477 63.0411 54.8622 62.729 55.7636 62.4334Z" fill="#B8975B"/>
<path d="M9.84804 59.1705C12.6716 59.5033 12.5872 66.5073 13.7511 68.5488C14.0889 69.1418 14.86 69.1032 15.4952 69.2336L15.5503 69.419C15.0436 69.9349 14.8104 69.9037 14.0577 70.0487C14.2725 71.5303 14.6801 73.6618 14.2083 75.0589L13.9531 75.1085C13.428 74.6256 13.4317 74.1116 13.294 73.3827C12.9342 72.2041 12.7836 71.3045 12.567 70.0836L9.13572 70.5426C8.92459 71.3816 8.94295 72.2592 7.99013 72.2885C7.67803 71.9728 7.52013 71.7561 7.47056 71.299C7.29248 69.654 9.18162 60.1055 9.84804 59.1705ZM11.4691 68.9784L11.9446 68.9472C12.187 68.3046 11.0193 64.3042 10.5971 63.836C10.3199 64.6548 9.40192 68.2459 9.49555 68.9564C10.1675 68.9747 10.7954 68.9894 11.4691 68.9784Z" fill="#B8975B"/>
<path d="M55.0714 12.7279C55.2348 12.7694 55.736 12.9544 55.7985 13.0488C56.5273 14.1792 56.0114 20.9492 56.4796 21.5514C56.9349 21.3243 57.3994 21.1128 57.8693 20.9175C60.8159 21.343 61.1446 30.6735 59.9439 31.5132L59.7933 31.4431C58.8607 30.3419 58.9801 29.4471 58.9507 28.0288C58.9415 26.7186 58.4935 24.1924 57.8271 23.082L57.5848 23.1422C56.8908 24.4733 56.9202 27.4862 55.6901 28.0257L55.345 27.8612C55.1853 27.6949 54.9576 27.4204 54.9484 27.1853C54.8511 24.6407 53.9626 14.5533 55.0714 12.7279Z" fill="#B8975B"/>
<path d="M99.7643 49.8285C102.046 50.6295 99.9185 56.2979 100.614 58.1643C103.247 57.5711 103.974 60.9188 104.404 62.8722C104.65 63.994 105.125 65.7766 104.178 66.5734L103.768 66.5239C102.986 65.8501 102.803 64.9762 102.603 64.0124C102.419 62.6905 102.14 61.4237 101.529 60.2267L101.279 60.2212C100.715 61.4219 100.824 64.6788 99.5899 64.7522C99.3439 64.5613 99.0446 64.3116 98.9877 64.0032C98.5232 61.4513 98.8831 51.7856 99.7643 49.8285Z" fill="#B8975B"/>
<path d="M57.6803 36.7863C58.1943 36.8296 58.1686 36.8287 58.6441 37.0368C59.988 38.4637 59.775 42.181 59.9458 44.3726C63.5019 39.839 64.4143 50.0694 62.1562 51.8821C61.5742 51.881 61.8496 51.9587 61.3374 51.5464C61.2658 49.9664 61.8478 46.7295 61.2015 45.6322C60.7848 46.6125 60.4194 48.201 59.4097 48.5694C58.3082 47.9964 58.1484 44.6608 58.1062 43.4688C58.0456 41.671 57.0634 38.3168 57.6803 36.7863Z" fill="#B8975B"/>
<path d="M34.7996 23.0137C39.4756 23.3096 38.3171 25.1387 40.4101 27.1498C40.7442 27.0495 40.9076 27.0132 41.2509 26.9522L41.4455 27.2667C40.7442 28.707 41.7521 28.4202 42.4791 29.743L42.3873 30.0121L42.0256 30.0547C41.1664 29.7241 41.0545 29.6272 40.3458 29.034C39.0074 29.1109 38.1684 29.1127 36.8301 29.0446C35.5688 28.7801 33.0408 28.248 32.7085 26.8445C33.408 25.6335 36.2463 25.9041 36.7401 24.9706C36.272 24.4589 33.0408 24.5305 31.987 24.3853C31.6217 24.0802 31.741 24.274 31.6712 23.7545C32.3762 22.9698 33.799 23.0662 34.7996 23.0137ZM37.7425 27.6413L38.7339 27.6719L38.912 27.4279C38.7284 27.0103 38.207 26.5825 37.7811 26.4413C37.3551 26.6622 36.4115 27.0382 36.2793 27.3745C36.8907 27.6172 37.0724 27.5955 37.7425 27.6413Z" fill="#B8975B"/>
<path d="M65.9821 60.5938C67.0598 60.5075 68.2898 60.4286 68.9599 61.3778C68.9342 63.355 64.8127 64.6989 63.3164 65.1101C66.8872 68.2679 68.1375 64.9614 69.81 65.1138C68.8645 68.5782 63.1695 68.7783 61.9321 65.5801C61.6457 64.8274 61.6972 63.9847 62.079 63.2724C62.773 61.9597 64.6126 61.0418 65.9821 60.5938Z" fill="#B8975B"/>
<path d="M50.6598 21.8416C51.3042 21.9558 51.6879 21.9949 51.9798 22.614C51.374 23.9777 47.9959 24.6553 48.7064 26.7696C50.4836 28.6053 51.541 27.1215 53.2631 26.4593C53.5458 26.865 53.4393 26.7853 53.3237 27.4615C52.09 28.736 50.2945 29.685 48.5761 28.7118C47.8325 28.2899 47.3001 27.5762 47.1074 26.7437C46.5456 24.3465 48.4751 22.4111 50.6598 21.8416Z" fill="#B8975B"/>
<path d="M41.541 22.8448C42.5562 22.8503 45.11 23.76 45.8039 24.5382L45.7801 24.8579C45.2789 25.1443 44.8107 24.8771 44.0304 24.7668C43.7642 25.2228 44.3958 27.1735 44.5629 27.8278C44.6106 28.2515 44.5739 28.3661 44.5316 28.7865C44.1608 29.2912 44.3903 29.1794 43.9074 29.2826C42.424 28.6591 42.514 24.8571 41.5575 23.6987C41.3831 23.4857 41.4969 23.2272 41.541 22.8448Z" fill="#B8975B"/>
<path d="M24.357 27.6853C23.663 27.1171 22.5524 26.9106 22.3963 25.8338C23.406 25.9434 23.8815 26.501 24.5571 27.1711L24.357 27.6853Z" fill="#B8975B"/>
<path d="M112.042 4.80512C110.192 5.85424 108.053 8.10805 106.461 8.33063C104.816 6.5683 114.561 0.147596 116.117 0C117.531 1.19677 115.386 12.1618 114.473 13.0269C113.097 11.326 114.313 5.55541 114.92 3.40415C113.852 4.62442 111.186 9.49709 110.211 11.1788C105.459 19.3707 102.258 23.3462 95.4139 29.8801C95.1612 29.7548 94.4777 29.5227 94.1795 29.4133L94.2911 29.2743C95.9327 27.268 98.4263 25.1161 100.159 23.0752C103.869 18.7044 109.736 9.9663 112.042 4.80512Z" fill="#B39955"/>
<path d="M94.1795 29.4133C94.4777 29.5227 95.1612 29.7548 95.4139 29.8801C92.254 32.7842 84.2815 37.9305 80.1351 38.9214C83.0492 37.2888 86.4838 34.8872 89.2867 33.0105C90.9623 31.8886 92.3151 30.581 94.1795 29.4133Z" fill="#B39955"/>
</svg>
