<svg width="32" height="37" viewBox="0 0 32 37" fill="none" xmlns="http://www.w3.org/2000/svg">
<path d="M18.8023 19.7781C18.8153 20.4813 17.2722 23.5104 16.99 24.492C16.508 26.1683 16.9957 26.7864 15.9502 28.1884L15.6234 28.2051C15.1889 25.4707 16.5943 21.4766 18.8023 19.7781Z" fill="#CAAC63"/>
<path d="M12.9787 19.1004L13.5305 19.1539C14.7114 20.3487 14.4885 26.0088 14.0221 27.6489L13.5793 27.7034C13.1756 26.9909 13.6123 24.7203 13.5672 23.632C13.4976 21.9511 13.1656 20.7087 12.9787 19.1004Z" fill="#CAAC63"/>
<path d="M17.9939 10.3375C19.8011 10.3272 22.224 14.8237 21.2019 16.865C21.0193 16.8429 20.8369 16.8192 20.6546 16.7941C20.4015 15.3322 20.292 13.4097 19.2919 12.3738C18.9744 12.0449 18.0765 10.9446 17.8859 10.5905L17.9939 10.3375Z" fill="#C5A75F"/>
<path d="M16.6857 18.5392C18.0408 18.9591 17.3691 20.0492 16.6383 20.7086C16.3446 20.7989 16.3595 20.8049 16.062 20.7479L15.9448 20.5213C15.942 19.7694 16.2699 19.1422 16.6857 18.5392Z" fill="#C5A75F"/>
<path d="M7.19585 20.3005C6.09883 18.6536 5.63468 16.6653 5.88925 14.7027C6.6032 9.15858 11.7741 5.98409 17.0202 6.72658C18.8209 6.9815 21.4679 8.03702 22.5872 9.49812C24.2795 10.9902 24.8119 12.7662 25.1248 14.9007C24.7226 14.8128 24.4515 14.8831 24.0289 14.921C23.8973 15.0633 23.8745 15.053 23.8042 15.2199C23.7684 13.9333 23.6145 13.5062 23.164 12.3276C20.5977 7.93701 15.25 6.4722 10.878 9.13169C9.10976 10.2202 7.84484 11.9654 7.36063 13.985C6.85192 16.1463 7.32291 17.7282 8.28485 19.6283C7.89714 19.8996 7.59728 20.0646 7.19585 20.3005Z" fill="#CAAC63"/>
<path d="M22.5872 9.49812C24.2795 10.9902 24.8119 12.7662 25.1248 14.9007C24.7226 14.8128 24.4515 14.8831 24.0289 14.921C23.8973 15.0633 23.8745 15.053 23.8042 15.2199C23.7684 13.9333 23.6145 13.5062 23.164 12.3276L23.6527 12.228C23.8594 11.8006 22.9101 10.4931 22.5872 9.49812Z" fill="#C5A75F"/>
<path d="M23.8042 15.2199C23.8745 15.053 23.8973 15.0633 24.0289 14.921C24.4515 14.8831 24.7226 14.8128 25.1248 14.9007C25.3463 22.932 18.5576 23.9921 19.5812 29.1972C18.4653 30.0797 17.7462 30.0415 16.5334 30.1067C15.5073 30.162 10.5817 29.9462 10.3148 28.8688C9.69806 26.3787 10.8939 25.5652 8.95675 22.705C9.75985 22.2861 9.69338 22.9146 10.4212 22.3843C11.7538 23.4388 11.2949 26.7142 11.178 28.1919C14.4156 29.0502 14.7477 28.884 17.9712 28.8863C18.2347 26.2592 18.4056 24.8428 20.3869 22.8715C22.6838 20.5861 23.7843 18.5193 23.8042 15.2199Z" fill="#BFA25D"/>
<path d="M10.7676 30.4099C12.1937 30.805 17.0596 31.2549 18.6339 31.391C18.8481 31.5909 18.7822 31.504 18.8406 31.8455C18.6974 32.2291 18.6548 32.2611 18.3175 32.4977C17.9507 32.5744 17.7054 32.6581 17.3536 32.7737L17.297 32.4828C15.9918 32.347 11.3394 32.01 10.6543 30.8231L10.7676 30.4099Z" fill="#C5A75F"/>
<path d="M17.0948 33.3136C17.6241 33.2255 17.9626 33.5683 18.3048 33.9232L18.114 34.1668C16.7622 34.8354 12.4951 34.2373 10.994 33.7391C10.5994 33.5542 10.3767 33.4799 10.0553 33.1798C9.95822 32.8274 9.94231 32.9927 10.0991 32.6671C10.454 32.6098 13.3038 33.1427 13.958 33.1947C15.0228 33.2793 16.0021 33.2986 17.0948 33.3136Z" fill="#CAAC63"/>
<path d="M2.41642 23.5336C3.62423 24.954 1.48608 26.2169 4.69961 27.1131L3.30365 27.6131C2.48351 28.6465 2.44561 28.8288 2.01769 30.0661C1.6754 29.7277 1.84005 29.3848 1.74511 28.9263C1.32224 26.8842 0.797105 27.6307 -9.45803e-06 27.1095L0.0225688 26.9605C2.3743 26.9193 1.57887 24.8919 2.41642 23.5336Z" fill="#CAAC63"/>
<path d="M13.3534 35.1167C14.3809 35.0999 15.4079 35.0612 16.4337 35.0006C16.6093 36.3197 15.438 36.3502 14.4833 36.5093C14.1485 36.565 13.8786 36.3857 13.5748 36.3252C12.9248 36.1844 12.1267 36.0574 12.0649 35.2704L12.2779 35.0787C12.7176 34.9625 12.9074 35.0346 13.3534 35.1167Z" fill="#C5A75F"/>
<path d="M13.5748 36.3252C12.9248 36.1844 12.1267 36.0574 12.0649 35.2704L12.2779 35.0787C12.7176 34.9625 12.9074 35.0346 13.3534 35.1167L13.073 35.3006C13.286 35.4011 13.4779 35.5303 13.6732 35.661C13.7387 36.0209 13.7077 35.9309 13.5748 36.3252Z" fill="#BFA25D"/>
<path d="M8.28485 19.6283C8.78979 20.2762 9.38085 21.0763 9.90233 21.6933L10.4212 22.3843C9.69338 22.9146 9.75985 22.2861 8.95675 22.705L8.40874 22.0755C8.1704 21.8952 7.35134 20.6198 7.19585 20.3005C7.59728 20.0646 7.89714 19.8996 8.28485 19.6283Z" fill="#BFA25D"/>
<path d="M8.40874 22.0755C8.52138 21.7323 8.52517 21.6287 8.7729 21.3855C8.92833 21.6065 9.04351 21.8204 9.20697 22.02C9.47256 21.9941 9.66871 21.8366 9.90233 21.6933L10.4212 22.3843C9.69338 22.9146 9.75985 22.2861 8.95675 22.705L8.40874 22.0755Z" fill="#CAAC63"/>
<path d="M14.4114 5.50352e-05C15.7244 0.928335 15.3198 2.54147 14.7468 3.77571C14.6472 3.76221 14.3009 3.71874 14.2463 3.65744C13.5481 2.87596 13.9333 0.806893 14.4114 5.50352e-05Z" fill="#CAAC63"/>
<path d="M0.86383 12.1525C1.53479 12.2281 3.0506 12.6356 3.37614 13.2384C3.12301 13.4993 3.08629 13.4218 2.64413 13.4561C1.8783 13.3348 0.669022 13.2039 0.0799505 12.7371L0.0616073 12.542C0.322978 12.2669 0.48993 12.2577 0.86383 12.1525Z" fill="#D1B164"/>
<path d="M6.6335 2.36745C8.09118 2.73951 8.35078 3.68481 9.01069 4.92896C8.82898 4.93383 8.65431 4.92181 8.47284 4.91362C7.52641 4.36719 6.93711 3.39514 6.6335 2.36745Z" fill="#CAAC63"/>
<path d="M28.7773 11.7833L29.7354 11.6163L29.9222 11.7933C29.8339 12.2337 29.7421 12.2354 29.622 12.5788C29.0429 12.7912 28.1157 13.1252 27.8597 12.3209L27.9903 12.0703C28.3119 11.8539 28.3918 11.8509 28.7773 11.7833Z" fill="#CAAC63"/>
<path d="M28.7773 11.7833L29.7354 11.6163L29.9222 11.7933C29.8339 12.2337 29.7421 12.2354 29.622 12.5788C29.3716 12.3236 29.1204 12.1928 28.8169 12.0056L28.7773 11.7833Z" fill="#CAAC63"/>
<path d="M4.12828 8.27318C4.68377 8.5067 5.40578 8.94637 5.39524 9.60744L5.1828 9.74771C4.5428 9.51678 3.77043 9.30904 3.79938 8.52908L4.12828 8.27318Z" fill="#CAAC63"/>
<path d="M29.7354 11.6163C30.1741 11.3871 31.3414 11.2846 31.913 11.1944C31.0389 11.9728 30.7656 12.2745 29.622 12.5788C29.7421 12.2354 29.8339 12.2337 29.9222 11.7933L29.7354 11.6163Z" fill="#D1B164"/>
<path d="M2.16683 17.7584C2.51696 17.7866 2.63151 17.7594 2.8832 17.9732L2.8999 18.2025C2.63614 18.578 2.40628 18.6321 1.98977 18.8045C1.68478 18.7441 1.6724 18.7281 1.40893 18.552L1.37006 18.3264C1.57465 17.9963 1.81152 17.9307 2.16683 17.7584Z" fill="#CAAC63"/>
<path d="M28.1463 8.21953C28.348 8.27241 28.3452 8.29256 28.5094 8.42776C28.418 8.79575 27.5373 9.3044 27.1902 9.53852C26.9088 9.47595 27.0373 9.53642 26.8095 9.31843L26.8976 9.04284C27.3035 8.61826 27.6254 8.48801 28.1463 8.21953Z" fill="#D1B164"/>
</svg>
