<svg width="27" height="25" viewBox="0 0 27 25" fill="none" xmlns="http://www.w3.org/2000/svg">
<path d="M19.3586 1.53415C19.551 0.773584 19.646 0.364298 20.3423 -4.635e-05L20.6196 0.313049C20.7242 1.14436 20.3962 1.54181 19.9931 2.29848C19.2423 6.58149 15.7619 10.2265 20.6481 14.3069C20.019 14.5597 20.1971 14.5329 19.7732 15.2931C19.2809 15.67 18.7883 15.9222 18.6125 16.4705C16.0104 16.4532 15.1721 16.622 13.1692 18.4589C11.9569 19.5718 11.7486 20.427 10.9161 21.3807C10.1586 22.5927 9.49554 24.232 8.26236 24.9913C7.79439 24.1944 8.94271 21.4153 9.22849 20.4419C9.92717 18.0597 10.1525 16.3639 9.97646 13.8862C8.15279 10.6835 5.00198 9.39532 2.04797 6.88403C5.51217 6.92584 9.03465 8.99786 12.4186 8.12552C15.6309 7.29584 17.7442 4.19312 19.3586 1.53415ZM10.7061 19.4687C13.1894 15.8404 15.0517 14.6738 19.4927 15.2902C18.5962 13.9596 17.2486 12.1891 16.9108 10.6175C16.7094 9.67777 17.307 8.47979 16.7777 7.49304C14.768 7.32613 14.4857 10.397 8.39984 9.72564C12.4035 12.6498 11.5964 15.3622 10.622 19.4311L10.7061 19.4687Z" fill="#B39955"/>
<path d="M19.7732 15.2931C19.2809 15.67 18.7883 15.9222 18.6125 16.4705C16.0104 16.4532 15.1721 16.622 13.1692 18.4589C11.9569 19.5718 11.7486 20.427 10.9161 21.3807C10.8197 21.0348 10.7482 19.8856 10.7061 19.4687C13.1894 15.8404 15.0517 14.6738 19.4927 15.2902L19.7732 15.2931Z" fill="#C1A35A"/>
<path d="M19.3586 1.53415C19.551 0.773584 19.646 0.364298 20.3423 -4.635e-05L20.6196 0.313049C20.7242 1.14436 20.3962 1.54181 19.9931 2.29848C19.6543 2.81893 19.3793 3.48082 18.8946 3.60124C19.007 2.83833 19.2395 2.23331 19.3586 1.53415Z" fill="#C1A35A"/>
<path d="M20.6481 14.3069C21.4904 15.0278 23.8833 16.8919 24.3378 17.5953L24.2428 17.797C23.1778 17.8157 20.6048 16.9333 19.4092 16.5692L18.6125 16.4705C18.7883 15.9222 19.2809 15.67 19.7732 15.2931C20.1971 14.5329 20.019 14.5597 20.6481 14.3069Z" fill="#C1A35A"/>
<path d="M19.7732 15.2931L20.3547 15.508L20.3561 15.8384C20.1674 15.9928 19.589 16.4954 19.4092 16.5692L18.6125 16.4705C18.7883 15.9222 19.2809 15.67 19.7732 15.2931Z" fill="#B39955"/>
<path d="M4.51748 11.4895L4.60477 11.7427C3.50643 12.7459 1.58853 12.9243 0.0955925 13.2093C-0.0487651 12.9315 -0.00573726 13.0858 0.0686259 12.7232C1.28176 12.1203 3.16589 11.5226 4.51748 11.4895Z" fill="#C1A35A"/>
<path d="M17.5476 19.8053C18.3883 20.6501 19.2367 22.3916 18.828 23.5892C17.9996 22.6422 17.1302 21.0638 17.5476 19.8053Z" fill="#C1A35A"/>
<path d="M26.337 7.52144L26.1655 7.84871C25.3692 8.48275 24.2248 8.59447 23.1748 8.86763L23.42 8.33358C24.3098 7.78552 25.3002 7.70031 26.337 7.52144Z" fill="#C1A35A" fill-opacity="0.968627"/>
<path d="M5.38251 17.6914L5.37708 18.0064C4.73701 18.4504 4.00359 18.4893 3.2154 18.6244C3.1338 18.5239 3.17541 18.4687 3.18017 18.2709C3.77342 17.8974 4.66274 17.8185 5.38251 17.6914Z" fill="#B39955" fill-opacity="0.94902"/>
</svg>
