<svg width="133" height="78" viewBox="0 0 133 78" fill="none" xmlns="http://www.w3.org/2000/svg">
<path d="M38.8709 39.7298C41.6963 39.5203 43.4547 47.4805 45.488 48.1249C47.9389 46.2667 50.779 47.9959 52.5554 49.9067L52.7158 50.0825C52.7613 49.4675 52.0794 48.4782 52.174 48.0486C52.6442 45.9378 56.2234 44.4565 58.0471 44.8052C60.5364 46.6536 56.9286 51.9368 57.3325 53.745L57.8913 53.8792C59.9226 53.2595 58.6136 49.7314 60.1848 48.492C61.3528 48.5092 62.6843 50.2278 64.1274 49.6938C60.6333 38.1345 68.1082 40.0065 66.7536 42.8125C66.3362 42.6542 66.1038 42.5283 65.7077 42.3228C64.6037 43.4403 64.7529 48.6486 66.8164 49.1631C69.7871 49.9013 70.552 46.2533 71.978 45.4688L72.1688 45.7518C72.2597 46.6496 72.1341 46.8276 71.751 47.6603C69.2827 51.2084 66.9416 50.9638 62.9603 50.8282C62.1883 50.8019 61.6584 50.6831 60.9344 50.4271C60.6575 52.1671 59.9727 54.9487 57.9732 55.7835C56.3692 56.4536 56.1764 54.9833 55.2838 54.5752C55.5794 57.2636 56.3392 57.6947 53.7974 60.0577C51.8404 61.8757 48.5229 61.9373 46.7021 59.9294C46.0213 59.1791 46.1981 57.9049 46.3006 56.9886C46.4509 56.9201 46.5985 56.8505 46.7488 56.782C47.4388 57.8515 47.6464 59.1983 49.0645 59.4561C53.7372 60.3016 54.3999 55.3764 52.0152 52.3805C50.9479 51.0413 48.5633 48.348 46.6952 49.75C46.1204 51.705 48.2987 53.3129 48.0995 55.3192C47.6976 55.8366 47.8925 55.673 47.1376 55.8588C45.8447 55.5157 43.1633 48.7838 42.341 47.2107C41.3342 45.2819 38.6231 41.7221 38.8709 39.7298ZM55.2124 54.3244L55.2063 52.6487L55.2673 52.3187C55.6118 50.5509 56.9901 47.8684 56.534 46.879C55.905 46.7443 55.2122 47.1915 54.591 47.4827C51.9831 49.4867 54.184 52.0296 55.2124 54.3244Z" fill="#B8975B"/>
<path d="M2.89325 55.6202C5.41472 54.4287 14.8334 51.1069 17.9061 51.505C18.8174 51.6231 19.3834 52.1541 19.8584 52.9257C19.4048 53.295 16.4773 53.4154 15.519 53.7661C11.2825 55.3187 6.8529 56.605 2.81059 58.6086C7.55547 63.1219 7.95251 63.3022 11.3712 69.1236L12.9133 68.1763C14.3563 67.2516 16.674 65.6243 18.2713 65.2845L18.4916 65.4854C17.8644 66.8069 13.5319 70.0342 12.2102 70.8142C13.0106 72.455 14.4784 74.9895 14.4553 76.7314C14.1094 77.4676 14.3772 77.2288 13.6628 77.5132C12.28 77.0941 11.3837 74.9008 10.7291 73.6699C9.04855 70.1612 7.6798 67.4776 5.1873 64.4447C2.09404 60.6805 -3.40811 59.0418 2.89325 55.6202Z" fill="#B8975B"/>
<path d="M104.683 22.2376C105.27 22.0009 105.26 21.9983 105.888 21.9436C107.377 22.4343 108.029 24.2038 109.089 25.6614C109.587 24.2302 110.012 20.5729 111.532 20.2919C112.967 20.9267 113.701 22.6966 114.591 24.0883C114.584 22.2888 114.824 20.5685 115.949 19.1125C116.78 18.0347 118.3 17.3968 119.464 18.2991C120.357 20.4958 117.472 24.0252 118.409 25.3998C120.564 25.3618 121.939 22.4073 124.198 22.2813L124.433 22.5508C124.384 23.3726 123.932 23.9219 123.485 24.6431C119.073 29.6877 114.878 28.5038 111.707 23.0276C110.797 26.7193 109.709 29.9967 106.455 25.2977C106.885 26.8717 108.45 31.2002 106.74 32.1557C104.978 31.9146 102.251 27.3971 103.083 25.9418C103.7 25.86 104.361 26.3316 104.948 26.644C105.114 25.4804 104.195 24.6946 104.683 22.2376Z" fill="#B8975B"/>
<path d="M32.7034 42.0642C33.2834 42.0134 33.2465 42.006 33.8033 42.1794C35.4269 43.5092 39.539 52.3165 41.0651 54.7345C41.3805 55.2328 42.5397 58.5446 43.0158 59.4784C43.5725 60.5643 44.5867 61.1032 44.7418 61.7668L44.4294 61.8861C43.503 61.5664 43.2 61.2797 42.4439 60.6981C42.3506 60.9329 42.2554 61.1685 42.1547 61.4019C41.2176 63.5802 40.1304 64.4198 37.8646 63.374C36.0131 65.1848 33.5154 66.5607 30.795 65.53C30.2993 65.3406 27.9341 64.4983 27.8072 64.3652C27.48 62.7988 29.982 60.6689 30.8808 59.3872C31.5625 58.4183 32.4245 58.0643 33.5131 57.6736C37.0901 59.954 30.1416 61.9925 31.6187 64.1369C32.8338 64.5933 35.938 64.023 36.7739 63.0337C37.1907 61.6948 34.0246 56.3455 37.9344 56.0045C38.539 56.2667 38.5038 56.2743 38.9096 56.8169L38.8212 57.1242C38.2915 57.3192 38.1711 57.3506 37.673 57.6501C37.2126 59.0205 38.1869 63.2733 40.2621 62.2877C40.9943 61.3206 40.99 60.2269 40.9634 59.0678C38.7431 56.219 32.7233 45.1866 32.7034 42.0642Z" fill="#B8975B"/>
<path d="M65.7573 27.711L66.4638 27.6219C67.1718 27.9048 67.5131 29.863 67.8373 30.735C69.0273 33.9347 70.3292 37.0659 71.6765 40.2033C71.6077 38.8424 70.4174 32.7493 73.2423 33.4955C75.0066 35.2667 71.5285 43.4285 79.1809 40.2222C79.8304 39.7522 80.1592 39.4364 80.9412 39.2508L81.1489 39.432C80.6263 40.9092 78.8887 41.903 77.5772 42.5704C75.7111 43.5153 75.0836 42.2348 73.3392 42.0682C72.9511 43.1085 73.282 43.6118 72.6233 44.4222C72.0357 44.6138 72.3428 44.5916 71.6731 44.3855C71.3497 44.1095 70.8894 43.4177 70.7772 43.0346C69.9417 40.1591 64.8454 30.1817 65.7573 27.711Z" fill="#B8975B"/>
<path d="M86.5002 17.7548C87.0742 17.684 87.0882 17.6466 87.6549 17.8385C89.5876 19.4976 93.0084 27.8097 94.0101 30.2871C94.7729 29.9061 99.2476 27.9214 99.8454 27.9966C100.395 28.9433 101.979 31.4142 102.061 32.3788L101.72 32.4285C100.247 31.5811 99.8766 30.954 98.9252 29.6055C98.1203 29.961 97.2844 30.4059 96.4958 30.8066C94.4971 31.8082 94.5702 31.6178 95.3065 33.5809C95.7504 34.7606 96.5166 36.0541 96.1075 37.2634L95.6831 37.3519C94.7966 36.8599 93.7013 33.9511 93.2473 32.8953C92.4136 33.45 91.1786 34.5897 90.3415 33.7229C90.408 32.4826 91.3877 31.9808 92.3131 31.2642C90.4453 27.602 88.0555 22.7403 86.4244 18.8792C86.3368 18.6712 86.4502 18.0125 86.5002 17.7548Z" fill="#B8975B"/>
<path d="M122.494 0.188502C122.995 0.0213184 123.063 -0.0542087 123.584 0.0434254C124.595 0.859394 124.803 4.14383 125.143 5.53323C125.752 8.0275 126.605 10.225 127.517 12.5993C128.174 14.3148 130.186 15.3633 130.357 16.4225C129.984 16.4942 129.687 16.5191 129.31 16.5586C125.052 15.1367 121.867 4.12122 122.494 0.188502Z" fill="#B8975B"/>
<path d="M21.807 63.2021C22.6847 62.8258 23.3179 62.4867 24.2606 62.5219C24.9059 62.9435 24.6913 62.729 25.0276 63.4763C24.7816 65.7976 21.0201 66.2245 21.4726 68.3493C21.6656 68.5275 22.0301 68.9312 22.2468 68.9529C24.0006 69.1315 27.4953 66.8943 29.0417 66.9255L29.1615 67.2061L28.8092 67.8771C26.4463 69.1412 20.8037 73.0173 19.7533 68.5902C19.621 68.0369 18.4203 68.4352 17.7045 67.8528C18.1008 66.9921 19.1667 66.7824 19.6509 66.1521C20.5603 64.9677 20.6066 64.2666 21.807 63.2021Z" fill="#B8975B"/>
<path d="M130.718 19.8382C132.959 19.4532 133.353 22.178 131.983 23.5428C131.158 23.6261 130.99 23.5958 130.396 23.0515C130.138 22.1161 130.527 20.8949 130.718 19.8382Z" fill="#B8975B"/>
<path d="M95.2444 21.6172C95.9048 21.4544 96.6928 21.2776 97.3003 21.5249C97.1163 22.5288 96.4 22.0551 96.2113 23.3884L96.4192 23.669C95.7478 23.9041 95.3692 23.5378 94.958 23.081C94.7968 22.4357 94.9703 22.2312 95.2444 21.6172Z" fill="#B8975B"/>
</svg>
