<svg width="36" height="41" viewBox="0 0 36 41" fill="none" xmlns="http://www.w3.org/2000/svg">
<path d="M19.066 2.62777C18.8269 1.51503 18.6871 0.921691 19.358 0L19.9201 0.228634C20.5909 1.24228 20.4201 1.97012 20.3828 3.21334C22.1624 9.26537 19.9822 16.2441 28.9608 18.4059C28.3055 19.1393 28.5198 18.9899 28.4577 20.2511C28.0602 21.0579 27.5819 21.7028 27.7061 22.5288C24.3116 24.1805 23.3302 24.9394 21.9077 28.6165C21.0475 30.8436 21.327 32.0896 20.858 33.8652C20.653 35.9286 20.8456 38.4867 19.7306 40.2674C18.6095 39.5324 18.3144 35.1799 18.0598 33.7304C17.4355 30.1834 16.6374 27.8334 14.8143 24.7251C10.3824 21.7341 5.45674 22.0864 0 20.7217C4.53124 18.5472 10.4445 18.975 14.2832 15.6635C17.9262 12.5179 18.6778 7.12377 19.066 2.62777ZM19.3549 31.5143C20.2493 25.1988 21.9202 22.4837 28.0912 20.4279C26.0694 19.2744 23.178 17.8396 21.7276 16.0133C20.8611 14.921 20.8673 12.9789 19.5443 12.0363C16.8237 13.1124 18.4324 17.2869 10.0874 20.3297C17.1746 21.5558 17.8703 25.602 19.2213 31.5195L19.3549 31.5143Z" fill="#B39955"/>
<path d="M28.4577 20.2511C28.0602 21.0579 27.5819 21.7028 27.7061 22.5288C24.3116 24.1805 23.3302 24.9394 21.9077 28.6165C21.0475 30.8436 21.327 32.0896 20.858 33.8652C20.5102 33.4776 19.6778 32.0293 19.3549 31.5143C20.2493 25.1988 21.9202 22.4837 28.0912 20.4279L28.4577 20.2511Z" fill="#C1A35A"/>
<path d="M19.066 2.62777C18.8269 1.51503 18.6871 0.921691 19.358 0L19.9201 0.228634C20.5909 1.24228 20.4201 1.97012 20.3828 3.21334C20.2772 4.108 20.3455 5.14556 19.7927 5.61402C19.448 4.54974 19.361 3.61345 19.066 2.62777Z" fill="#C1A35A"/>
<path d="M28.9608 18.4059C30.5199 18.8013 34.8307 19.6854 35.8742 20.3077L35.8804 20.631C34.5077 21.3406 30.5944 21.8488 28.8056 22.1445L27.7061 22.5288C27.5819 21.7028 28.0602 21.0579 28.4577 20.2511C28.5198 18.9899 28.3055 19.1393 28.9608 18.4059Z" fill="#C1A35A"/>
<path d="M28.4577 20.2511L29.3522 20.1564L29.5665 20.5851C29.4205 20.9072 28.9919 21.933 28.8056 22.1445L27.7061 22.5288C27.5819 21.7028 28.0602 21.0579 28.4577 20.2511Z" fill="#B39955"/>
<path d="M6.17419 25.1211L6.4506 25.3942C5.66796 27.4053 3.28899 28.8713 1.53115 30.2024C1.16468 29.934 1.31995 30.107 1.1833 29.5876C2.37279 28.0232 4.43809 26.0338 6.17419 25.1211Z" fill="#C1A35A"/>
<path d="M28.467 27.5501C30.1037 28.1077 32.3274 29.8262 32.5666 31.6463C30.8802 30.948 28.7341 29.455 28.467 27.5501Z" fill="#C1A35A"/>
<path d="M31.992 5.9228L31.9796 6.45867C31.3522 7.79539 29.936 8.67701 28.7465 9.70774L28.7217 8.85563C29.526 7.57048 30.759 6.82244 31.992 5.9228Z" fill="#C1A35A" fill-opacity="0.968627"/>
<path d="M11.2893 32.6286L11.4849 33.0417C10.9383 34.0308 10.0098 34.5533 9.07183 35.2361C8.90101 35.1578 8.91964 35.0594 8.79852 34.799C9.3296 33.9317 10.4352 33.257 11.2893 32.6286Z" fill="#B39955" fill-opacity="0.94902"/>
</svg>
