<svg width="150" height="51" viewBox="0 0 150 51" fill="none" xmlns="http://www.w3.org/2000/svg">
<path d="M62.9337 22.2443C71.6863 21.5322 70.0486 33.8789 64.078 35.2884C63.1326 35.3396 62.3606 35.1915 61.504 34.8038C60.0488 34.1441 58.9175 32.9311 58.3621 31.434C57.725 29.6758 57.8152 27.7372 58.6127 26.0462C59.3384 24.5047 61.4254 22.7788 62.9337 22.2443ZM62.2613 33.4696C65.4284 34.1953 66.518 31.7073 67.2586 29.0727C67.9872 26.4811 66.2995 23.8774 63.5488 23.6229C63.5974 24.2368 63.605 25.2896 63.2843 25.8281L63.1017 25.8295C63.1016 25.4754 63.0898 25.1981 63.0655 24.844C62.8165 24.6246 62.8564 24.6461 62.496 24.6757C60.1382 24.8723 59.42 27.6591 59.6389 29.6219C59.8245 31.2846 60.7897 32.6834 62.2613 33.4696Z" fill="#B8975B"/>
<path d="M116.608 40.6736C120.854 40.3087 118.294 43.8319 118.066 45.2954C120.151 47.0657 124.194 45.1903 126.249 44.388C123.805 47.5369 119.904 48.5978 116.489 46.2849C113.482 46.7251 111.719 46.4424 111.283 43.0094C110.489 43.8912 109.181 45.6077 107.895 45.5336C107.519 45.3492 107.493 45.3681 107.253 45.0113C107.148 44.8134 107.04 44.6343 106.927 44.4418C106.321 45.0248 106.976 47.2704 105.484 47.3565C104.204 46.6309 103.7 43.2611 104.334 42.0172C104.726 41.7035 104.914 41.6927 105.285 41.9876C105.475 42.5355 105.387 42.8519 105.294 43.4254C105.184 44.0999 105.299 44.4984 105.422 45.1675C105.633 43.9868 105.839 41.6685 107.118 41.2686L107.437 41.4396C108.094 42.3524 108.088 43.1655 108.227 44.2803C109.083 43.5317 111.305 40.8594 111.874 41.0559C113.477 41.6106 111.543 45.3761 115.297 45.2105L115.439 45.0503C115.201 43.3513 115.105 42.0616 116.486 40.7853L116.608 40.6736Z" fill="#B8975B"/>
<path d="M141.592 22.5069C145.201 22.243 143.47 29.3931 142.435 29.9329C141.507 29.2706 142.695 26.1607 142.06 24.0739L142.006 23.8989C140.352 25.7608 140.2 27.2781 139.018 29.3231C138.942 29.455 138.709 29.4469 138.504 29.4846C138.043 29.2477 138.061 29.0686 137.799 28.5274C135.924 29.2719 135.644 29.451 133.718 28.833C130.153 31.3183 129.822 27.76 129.647 25.2021C129.288 26.2064 128.958 27.2215 128.659 28.2461C128.545 28.6742 128.303 29.0686 127.922 29.2921L127.626 29.2006C126.509 28.001 127.256 24.9517 128.62 24.3203C129.062 24.1157 129.165 23.4641 129.92 23.4156C131.333 24.2476 130.745 27.3642 131.556 28.304C131.863 28.3134 132.689 28.1007 132.662 27.7735C132.536 26.2549 133.068 21.3087 135.62 23.7495C136.632 24.7175 135.053 26.6278 134.946 27.7776L135.142 27.9862C136.439 28.0764 136.999 27.5541 137.797 26.6575C137.863 26.0301 137.825 25.3691 138.223 24.9517C138.77 24.8305 138.648 24.8911 139.267 25.0917C140.365 23.9487 139.771 23.6216 141.592 22.5069Z" fill="#B8975B"/>
<path d="M68.5027 36.8111C70.8107 37.2998 70.0699 40.5995 70.1844 42.2662C70.2289 42.9111 70.3213 43.5048 70.4321 44.1416C70.7941 44.0514 71.161 43.9827 71.531 43.9342C72.0048 43.871 72.4681 43.8508 72.8626 44.155L72.8164 44.4148C72.2456 44.9964 71.554 45.0947 70.7466 45.3438C70.9982 46.4168 71.9425 49.5038 71.2795 50.3075C70.5472 50.1863 69.382 48.5802 68.5142 47.8115C66.8056 51.3145 64.698 50.562 62.7958 47.7805C62.2824 48.517 61.5476 49.625 60.6648 48.6179C60.4093 47.5436 61.0478 47.1316 61.8088 46.4989C62.5364 45.8567 63.683 45.0691 63.5942 44.0392C63.0033 43.2059 61.6809 43.2463 60.8654 43.6946L60.8505 43.9235L61.3419 44.3772C61.0867 44.4633 60.9516 44.3785 60.6414 44.3139C60.1826 43.9665 60.0344 43.8319 60.2277 43.2678C61.2212 42.3389 64.3785 42.281 64.5985 44.0271C64.7249 45.0301 63.9295 45.8756 63.3667 46.6322C63.6869 47.3659 63.9221 47.6069 64.2736 48.2194C65.1375 49.7273 67.4312 49.0824 67.5619 47.5436C67.3785 47.0441 67.3563 47.1626 66.7969 46.7964C66.4256 45.7759 67.7255 45.3074 68.5006 44.8497C69.1788 41.8327 68.6716 41.3265 68.2257 38.3243C68.1285 37.6686 68.0989 37.3388 68.5027 36.8111ZM68.8881 47.1505L69.9861 48.109L70.1488 48.1252C70.1668 47.5786 69.8283 46.0479 69.4102 45.7261C69.1854 46.2579 69.035 46.5864 68.8881 47.1505Z" fill="#B8975B"/>
<path d="M72.2345 27.0411C75.7004 27.0061 74.5064 33.3269 76.6468 32.9836C77.4629 32.2149 76.3921 28.8209 77.9533 28.452C78.3248 28.3645 79.0916 28.7482 79.2856 29.0875C79.737 29.8764 79.0833 30.9278 79.1498 31.8783C80.238 33.6891 86.1559 31.7504 87.947 31.224C86.5722 32.3657 85.1602 33.1102 83.423 33.506C81.3722 33.786 79.9748 33.8479 78.0159 33.2044C77.8501 33.3862 77.6752 33.5598 77.492 33.7241C74.5043 36.3884 73.9743 30.0083 72.7903 28.6701L72.5557 28.6634C71.3685 30.4997 72.881 33.9448 71.829 34.8078C70.8775 34.4941 69.7175 31.0732 69.6952 30.0447C69.6824 29.4523 70.6076 29.5856 70.6595 29.5116C71.4455 28.3793 70.9292 27.9324 72.2345 27.0411Z" fill="#B8975B"/>
<path d="M147.064 12.7813C147.391 12.8769 147.407 12.8985 147.704 13.0735C147.914 13.546 147.912 13.5635 147.902 14.0886C147.746 14.3996 147.682 14.4373 147.408 14.6217C147.15 16.7609 147.228 18.8396 147.258 20.9869C147.969 21.0596 149.397 20.995 149.3 21.9589C148.681 22.6226 148.113 22.6119 147.223 22.7263C147.213 24.1722 147.512 26.6897 146.962 28.0077C146.808 28.378 146.393 28.448 146.049 28.5624C144.961 27.6119 143.314 22.7263 143.017 21.1027C142.895 20.4376 145.259 20.8375 145.62 20.8792C145.637 18.779 145.446 14.2192 147.064 12.7813ZM145.657 25.2183C145.65 24.5128 145.753 23.3227 145.522 22.7559C145.137 22.3843 145.065 22.4624 144.495 22.3305C144.718 23.0427 145.177 24.7646 145.657 25.2183Z" fill="#B8975B"/>
<path d="M117.645 24.2651C118.118 24.2328 118.797 24.1857 119.214 24.3351C121.626 25.1981 120.807 29.4725 118.75 30.2991C118.112 30.5563 117.71 30.2291 117.147 29.9814C117.033 30.3678 117.002 33.1182 116.961 33.7671L117.071 33.8802L117.769 33.5679C117.824 34.2033 117.401 34.8859 116.786 35.0878C115.171 34.5789 116.243 28.6122 115.878 27.1354C115.74 26.5807 115.248 27.0627 114.836 26.2926C114.897 24.945 116.535 24.5855 117.645 24.2651ZM117.703 28.7657C118.146 29.0673 117.963 29.0363 118.423 28.9919C119.434 28.1895 119.958 25.9291 118.326 25.5037C117.913 25.5939 116.399 25.8995 116.193 26.2145C116.493 26.2738 116.818 26.2643 116.92 26.539C117.193 27.2781 117.376 28.0481 117.703 28.7657Z" fill="#B8975B"/>
<path d="M94.8485 25.1927C95.32 25.1725 95.4225 25.1254 95.7844 25.3785C96.0636 25.7878 96.0943 25.8053 96.1173 26.2819C95.9858 26.6225 96.0004 26.6009 95.7016 26.8109C95.497 26.5188 95.5123 26.5309 95.2213 26.3249C94.9101 26.3371 94.8164 26.3869 94.5565 26.5444C90.7794 28.8452 92.3793 30.6532 95.838 31.4031C95.9348 31.3775 96.0313 31.3519 96.1277 31.325C98.742 30.594 97.5122 29.0767 98.534 27.1381C98.8853 26.4717 100.366 25.8807 100.954 26.3263C100.708 27.2552 98.752 28.1263 98.9778 29.7553C99.2099 30.1861 99.2622 30.1901 99.705 30.4432C100.26 30.4836 100.095 30.4661 100.661 30.2063C101.094 29.587 101.167 29.385 101.45 28.6944C101.193 28.1142 100.962 27.7601 101.104 27.1893L101.389 27.0977C102.903 27.7897 102.831 30.3772 101.341 31.2065C100.552 32.2028 98.4695 31.1392 98.2723 31.2725C96.6331 32.3832 95.06 33.0671 92.8047 31.8582C89.1173 29.8818 91.4374 26.0153 94.8485 25.1927Z" fill="#B8975B"/>
<path d="M95.8683 35.345C96.4632 35.4742 97.3408 35.7839 97.2728 36.5607C96.8909 36.4597 96.9065 36.3978 96.5763 36.4893C96.5873 37.0534 98.151 42.0764 98.4126 42.9461C99.2202 42.9366 100.46 42.9407 101.293 42.833C101.289 42.833 101.765 42.4654 101.82 42.4224L102.106 42.5126C102.572 43.1238 103.919 45.8581 103.515 46.5527C102.602 46.2714 101.813 44.2789 101.433 43.4294C100.893 43.6111 100.614 43.6704 100.052 43.774L98.714 43.949C98.9885 45.0126 99.8958 47.7523 99.1872 48.5977L98.9123 48.5223C98.0615 47.5921 97.5764 45.4501 97.2432 44.1914C96.5025 44.3112 95.5274 44.637 95.1165 43.8642L95.2973 43.5452C95.801 43.1615 96.2425 43.1521 96.8753 43.0457C96.3156 41.2282 94.6451 36.9228 95.8683 35.345Z" fill="#B8975B"/>
<path d="M110.782 24.9275C113.256 25.3502 113.659 29.2463 112.855 31.0557L112.656 31.1271C111.698 30.2776 111.738 26.8917 110.853 26.3909C109.519 26.5295 109.069 28.9273 107.468 28.8923C107.022 28.6755 106.982 28.6271 106.692 28.2218C106.579 27.9472 106.46 27.7627 106.308 27.5123C105.968 27.8624 106.972 29.3917 106.375 30.3866C105.974 30.5643 106.137 30.528 105.637 30.4082C105.154 29.8077 103.883 26.8015 104.254 26.1486C105.136 25.7272 105.658 25.1133 106.587 25.2788C107.35 25.7339 107.504 26.3949 107.833 27.2242C108.786 25.921 109.265 25.4835 110.782 24.9275Z" fill="#B8975B"/>
<path d="M80.6527 41.6523C85.9559 41.3898 82.468 43.463 84.1554 46.1785C84.578 46.8597 87.1635 46.9916 87.6785 47.6217C86.892 48.7781 84.4411 47.9959 83.4228 47.4521L83.2114 47.3995C82.4578 48.1979 80.8603 49.598 80.0108 47.9865C79.1077 46.2741 82.1669 44.3623 82.5448 42.9689C81.6385 42.2487 80.2929 43.1453 79.3481 42.6795C79.1461 42.3146 79.1761 42.5072 79.2872 42.079C79.7838 41.6563 79.9181 41.7613 80.6527 41.6523Z" fill="#B8975B"/>
<path d="M123.688 23.6525C124.026 23.6835 124.011 23.6875 124.323 23.8289C125.233 25.1065 125.839 25.9062 126.225 27.4262C126.13 27.892 126.001 28.351 125.841 28.7994C125.507 29.7458 125.096 30.1456 124.21 30.567C120.075 30.4795 121.612 25.5427 123.688 23.6525ZM123.894 29.4133C124.631 28.6607 124.736 28.4951 125.004 27.4221C124.818 26.6265 124.727 24.9194 123.992 24.669C123.36 25.8779 122.027 28.6917 123.894 29.4133Z" fill="#B8975B"/>
<path d="M99.5552 38.7336C99.9189 38.7511 100.287 38.708 100.546 38.9248C100.159 39.2775 100.109 39.33 99.8655 39.7918C99.8831 40.2845 100.01 40.2589 100.424 40.6978L100.284 40.9886C99.0263 41.0627 98.6669 39.7918 99.5552 38.7336Z" fill="#B8975B"/>
<path d="M5.50502 3.2843C7.59298 3.68874 10.3397 5.1426 11.9191 4.84607C12.9165 2.65112 1.6329 -0.327045 0.111105 0.0292079C-0.847643 1.61445 4.68194 11.323 5.82289 11.8519C6.58504 9.80092 3.5921 4.71947 2.33074 2.87409C3.73195 3.69016 7.81242 7.4584 9.27342 8.7412C16.3897 14.9901 20.6912 17.7374 29.2611 21.748C29.4607 21.5486 30.0345 21.1107 30.2823 20.912L30.1322 20.8158C27.9366 19.4377 24.8869 18.1932 22.5942 16.8113C17.6843 13.8516 9.33635 7.44076 5.50502 3.2843Z" fill="#B39955"/>
<path d="M30.2823 20.912C30.0345 21.1107 29.4607 21.5486 29.2611 21.748C33.1821 23.4929 42.3794 25.8285 46.6254 25.4454C43.3428 24.8273 39.3217 23.6462 36.0667 22.7613C34.1208 22.2322 32.4217 21.4242 30.2823 20.912Z" fill="#B39955"/>
</svg>
