<svg width="25" height="33" viewBox="0 0 25 33" fill="none" xmlns="http://www.w3.org/2000/svg">
<path d="M14.49 0C15.9638 4.29405 12.9975 7.04985 17.1862 13.9287C19.35 14.8533 20.7863 15.3109 23.055 15.8686C13.245 19.6432 15.0488 23.1398 13.9463 32.358C13.38 30.6713 12.9375 29.1536 12.465 27.438C12.1913 26.0107 11.7825 23.5933 11.2913 22.2868C9.13125 16.5367 3.68625 17.8157 0 16.0506C0.810001 14.5344 6.29626 15.1548 8.76751 12.8173C12.735 9.06522 12.0113 3.53412 14.49 0ZM13.1625 21.9489C12.945 22.0734 15.6825 17.6436 17.565 16.1683C14.0887 13.3011 14.6212 13.4253 13.1137 9.6046L12.9262 10.0277C11.145 13.9523 9.10501 13.8176 8.48626 15.773C10.6125 17.4538 12.315 19.3071 13.1625 21.9489Z" fill="#B99D57"/>
<path d="M2.94376 21.3714C4.27501 21.9596 4.28997 22.2825 4.54497 23.5631C4.25622 24.9112 3.88499 25.1149 2.82749 26.0432C1.95374 25.0924 1.32 24.6306 1.15875 23.3786C1.785 21.951 1.47376 22.4581 2.94376 21.3714Z" fill="#C1A35A"/>
<path d="M22.4407 0.90358C23.7719 1.49172 23.7869 1.81468 24.0419 3.09524C23.7531 4.44332 23.3819 4.647 22.3244 5.57535C21.4506 4.62449 20.8169 4.16276 20.6557 2.9107C21.2819 1.4831 20.9707 1.99022 22.4407 0.90358Z" fill="#C1A35A"/>
</svg>
