<svg width="143" height="85" viewBox="0 0 143 85" fill="none" xmlns="http://www.w3.org/2000/svg">
<path d="M13.1233 13.2897L13.1726 13.2812C14.9649 12.9783 16.3807 13.5851 16.7886 15.5174C16.8349 15.7373 16.803 15.9031 16.6705 16.0817C16.2016 16.2397 15.3478 14.7454 14.0027 14.8094C11.8888 14.9099 7.39091 18.5641 5.91903 20.1931C4.73715 21.5013 3.50524 23.4854 3.6099 25.3229C3.78698 28.4331 9.29446 27.8956 11.469 27.8691C12.7729 27.8421 14.0774 27.872 15.3788 27.9586C18.6128 28.1888 22.405 28.9134 24.8884 31.1423C26.4066 32.5152 27.3128 34.4377 27.4053 36.4821C27.5542 39.4605 25.7126 42.3879 23.7629 44.5352C20.9887 47.5906 17.3226 50.0613 13.0931 50.3003C9.20719 50.5198 4.9848 48.7342 2.12742 46.133C0.495437 44.7182 0.197367 43.2615 0.0289934 41.213C0.00341693 40.902 -0.0568706 40.5616 0.140792 40.3201L0.238595 40.3449C0.447135 40.3978 0.837074 41.437 0.920682 41.6749C1.57225 43.5279 2.8273 44.7369 4.47842 45.7815C7.29902 47.5662 11.0506 48.7433 14.3876 47.9604C18.1294 47.0826 21.6134 44.0114 23.707 40.8767C24.7295 39.3458 25.5647 37.3628 25.1187 35.5024C23.9385 30.579 17.4224 30.0924 13.294 29.8338C10.2757 29.6447 6.26972 30.0676 3.58565 28.4824C2.70091 27.9599 2.11099 27.087 1.89546 26.0879C1.49756 24.2431 2.23961 22.2328 3.17959 20.691C4.92059 17.8357 9.89407 14.002 13.1233 13.2897Z" fill="#B8975B"/>
<path d="M60.8504 0.944174C61.2426 0.968204 62.1426 1.45411 61.8282 1.83372C61.6333 1.8901 61.4423 1.79839 61.2477 1.73078C61.6107 8.7084 64.2005 15.7909 65.2247 22.7091C65.5487 22.2613 65.8768 21.8118 66.2777 21.4284C66.6351 21.0868 67.116 20.7294 67.634 20.7526C70.3573 20.8744 69.4492 30.6196 70.5936 31.7442C70.6571 31.8066 70.728 31.841 70.8166 31.8389C71.2354 31.8289 71.7086 31.2932 71.9833 31.0139C71.3515 29.0662 72.081 25.6899 74.4192 25.212C75.2231 25.0477 75.9378 25.6976 75.9695 26.5035C76.0408 28.2873 74.7199 30.0395 73.6355 31.3442C76.2657 34.693 80.8125 31.1207 81.8171 28.1665C81.9046 27.9099 82.1394 27.3699 82.1026 27.1087C81.8372 25.2174 81.5037 23.3291 81.2125 21.4391C80.5906 17.2386 80.1633 13.0116 79.9315 8.77174C79.8751 7.83594 79.7017 6.52959 79.9174 5.64434C79.979 5.39211 80.5797 5.35321 80.615 6.02104C80.627 6.25794 80.7543 6.80045 80.7649 7.12285C80.8342 9.19999 81.2759 11.0305 81.8887 12.9986C82.7909 16.077 83.4338 19.2255 83.8097 22.4113C83.9864 24.0366 83.8721 25.4334 83.6464 27.0324C83.5038 28.0411 84.1704 29.9237 84.6154 30.829C84.7412 30.5851 84.8885 30.1558 85.1966 30.2026C85.6915 30.8526 84.4431 33.8155 82.8071 29.3143C82.2456 30.3565 81.7153 31.2276 80.8166 32.0215C78.3029 34.2405 75.1089 34.9214 72.683 32.3104C69.81 34.9374 68.8277 31.9666 68.6207 29.5401C68.4256 27.256 68.4035 23.9998 67.5191 21.9848C67.4678 22.0276 67.4167 22.0712 67.3662 22.1156C66.6857 22.7148 65.775 23.9033 65.4969 24.7846C65.2795 25.4747 65.4193 26.4895 65.3817 27.2234C65.3526 27.7879 65.3579 28.3867 65.3084 28.9549C65.2062 29.8989 65.2638 31.1986 64.5613 31.9139C64.2022 32.2797 63.4448 32.0842 63.2217 31.6868C62.409 30.2374 62.9814 28.0716 63.3583 26.5392C63.5211 25.8782 63.9034 25.2359 63.9343 24.5493C63.9209 21.8857 63.2999 19.2137 62.7556 16.6254C61.9908 12.9882 61.1136 9.32737 60.6743 5.63621C60.5299 4.42409 60.3061 2.9704 60.4173 1.75053C60.4534 1.35997 60.5501 1.17355 60.8504 0.944174ZM73.1501 29.7504C73.6432 29.0584 74.7402 27.4211 74.6129 26.565L74.5491 26.4892C73.5591 27.1737 73.0569 28.4904 73.075 29.6653L73.1501 29.7504Z" fill="#B8975B"/>
<path d="M47.3925 30.4677C48.9982 30.1881 48.8071 32.5245 48.7256 33.5012C48.9953 33.9792 49.4377 34.4136 49.8268 34.7954C51.8082 36.7396 54.4871 38.0915 56.0417 40.4387C57.2295 42.2317 57.5979 44.2795 57.163 46.3808C56.7488 48.3788 55.5814 50.0194 53.8768 51.131C52.0391 52.3293 49.9764 52.7474 47.8285 52.2866C46.1079 51.9174 40.3251 49.3845 39.4532 47.9887C39.3367 47.8023 39.2508 47.5251 39.3193 47.3069C39.3537 47.1973 39.4407 47.1086 39.5436 47.0642C39.7122 46.9915 39.8813 47.0155 40.0489 47.0797C40.7347 47.342 41.4025 47.797 42.0611 48.1325C43.3008 48.7568 44.5708 49.3188 45.8666 49.8164C48.6734 50.9219 51.4003 51.0919 53.7248 48.8482C54.8666 47.7404 55.5138 46.2189 55.5191 44.6282C55.5558 41.2858 53.159 39.6963 50.8402 37.7944C49.7373 36.8897 49.0858 36.2747 48.1007 35.2617C47.6842 36.0354 47.0584 36.8679 46.2037 37.1577C44.4566 37.7503 41.7004 36.7144 41.0485 34.9069C40.6642 33.8412 40.8587 32.6651 42.0627 32.3359C42.2523 32.2841 42.3155 32.223 42.4812 32.3117C42.4487 32.486 42.3832 32.5196 42.2864 32.6573C41.9824 33.089 41.7245 33.1936 41.8031 33.7517C41.955 34.8512 42.7767 35.5273 43.7716 35.865C45.6266 36.4945 46.6324 35.6467 47.1833 33.9068C47.1521 33.8479 47.1222 33.7883 47.0934 33.7282C46.6665 32.8326 46.2356 30.9873 47.3925 30.4677Z" fill="#B8975B"/>
<path d="M32.9752 29.0944C33.5144 28.974 34.0165 28.8641 34.5343 29.0972C36.2753 29.8537 34.657 32.2905 34.0312 33.3202C32.639 35.6108 31.4155 37.9714 31.1545 40.6864C31.1423 41.0491 30.937 42.0577 31.4515 42.1735C32.7632 42.4688 33.9463 40.1561 34.2648 39.3099C33.6832 38.2198 33.0655 35.6525 34.3072 34.8301C34.5407 34.673 34.8278 34.6168 35.1033 34.6742C36.6609 35.0127 36.2085 37.9147 35.9664 38.999C37.9554 40.4898 41.029 40.2677 42.9906 38.7744C43.3007 38.5384 43.5267 37.5951 43.996 37.6043L44.0797 37.7248C44.2484 38.9681 43.243 39.7031 42.3119 40.245C41.8085 40.4941 41.2851 40.7004 40.7472 40.8619C38.9062 41.417 37.1507 41.3194 35.4529 40.4103C34.7385 41.9534 33.4816 43.6466 31.6018 43.6805C31.132 43.7 30.4662 43.4697 30.1488 43.1045C28.7567 41.5027 30.0325 37.6722 30.7773 35.984C31.0621 35.3483 31.3818 34.7288 31.735 34.1283C32.0555 33.576 34.1648 30.5768 33.7579 30.1934C32.4512 30.0298 28.8499 34.3274 28.7633 34.3461C28.2535 34.0907 28.8828 33.0707 29.1213 32.761C30.1521 31.4219 31.4772 29.8984 32.9752 29.0944Z" fill="#B8975B"/>
<path d="M95.2917 20.2805C95.3306 20.269 95.3697 20.2582 95.4095 20.2482C96.2519 20.0341 97.4875 20.632 97.6785 21.4462L97.6159 21.5268C97.1751 21.5625 96.4296 21.1165 95.9456 21.1879C95.6506 21.2314 95.2105 21.9147 95.0227 22.1729C95.3152 22.1137 95.6412 22.0428 95.9388 22.0114C97.5215 21.8451 99.6635 22.6436 100.018 24.3736C100.264 25.5762 99.7152 26.6145 99.0781 27.5836C98.6646 28.1144 98.3311 28.5059 97.7416 28.8479C96.218 29.7315 93.8152 29.1786 92.9441 27.617C92.3665 26.5823 92.532 25.1311 92.8611 24.0439C93.2677 22.7001 94.0051 20.9949 95.2917 20.2805ZM97.4082 27.2468C98.1108 26.38 99.2293 24.7538 97.9821 23.8466C97.2723 23.3302 96.3598 23.0826 95.4863 23.1108C95.168 23.1201 94.8384 23.1714 94.535 23.1584C94.1963 24.1018 93.5661 25.8919 94.0491 26.8002C94.709 28.0395 96.433 28.1828 97.4082 27.2468Z" fill="#B8975B"/>
<path d="M86.9592 4.28644C87.6603 4.24157 87.7984 4.91945 87.9023 5.49361C88.2698 7.52328 88.6446 9.58832 88.8083 11.6449C88.9576 13.6852 89.0844 15.727 89.1891 17.77C89.327 20.1692 89.4002 22.5456 90.0283 24.8783C90.3921 26.2289 90.331 26.3629 91.2611 27.4831C91.3165 27.9097 91.0012 27.9817 90.6472 28.0705C90.1468 27.9196 89.7202 27.5701 89.4562 27.1166C88.1914 24.9476 87.8975 22.3258 87.7229 19.8663C87.5199 17.0181 87.4389 14.1642 87.2696 11.3141C87.152 9.23228 86.8309 7.18723 86.6732 5.10986C86.6439 4.72349 86.7057 4.57078 86.9592 4.28644Z" fill="#B8975B"/>
<path d="M99.5387 0.023673C99.6332 0.0119588 99.7351 -0.00357793 99.8309 0.000737309C99.9882 0.00777394 100.105 0.0487795 100.21 0.168308C100.918 0.973011 102.511 11.1538 102.745 12.8839C102.932 14.2666 102.986 15.6656 103.216 17.0433C103.323 17.6795 103.949 18.9533 103.888 19.4715C103.876 19.5725 103.808 19.5949 103.732 19.6541C102.587 19.4921 102.147 18.2954 101.922 17.2968C101.343 14.7241 101.162 11.9006 100.766 9.31204C100.521 7.78879 100.259 6.2685 99.9788 4.75139C99.7297 3.44318 99.4584 2.15428 99.3003 0.827448C99.252 0.422291 99.2867 0.340614 99.5387 0.023673Z" fill="#B8975B"/>
<path d="M104.223 26.3993C104.991 26.2596 105.699 26.5867 105.988 27.3264C106.624 28.956 106.387 31.2021 104.633 31.9824C102.791 32.0433 102.816 29.6829 103.15 28.4159C103.481 27.1607 103.912 27.5693 104.318 27.029C104.196 26.9215 104.154 26.8691 104.057 26.7465C104.054 26.5301 104.049 26.5993 104.223 26.3993ZM104.49 30.6405C104.902 29.929 105.24 28.3715 104.783 27.6457L104.691 27.5995C104.371 27.9343 104.314 28.1627 104.217 28.6076C104.124 29.0386 103.99 30.4263 104.49 30.6405Z" fill="#B8975B"/>
<path d="M134.581 77.5019C133.024 75.4038 129.222 73.3717 129.191 71.3088C132.992 68.4204 142.912 79.1331 142.808 81.1764C140.153 83.5385 119.594 84.8036 118.157 83.9003C121.773 81.398 132.571 80.8502 136.558 80.8532C134.477 79.8754 125.768 78.1268 122.776 77.4483C108.203 74.144 101.353 71.3332 90.4914 64.578C90.7954 64.1895 91.4125 63.1792 91.6973 62.7354L91.9369 62.8332C95.3869 64.287 98.9045 66.8352 102.398 68.3984C109.881 71.7459 125.227 76.3484 134.581 77.5019Z" fill="#B39955"/>
<path d="M91.6973 62.7354C91.4125 63.1792 90.7954 64.1895 90.4914 64.578C85.6929 61.4162 77.7819 52.6116 76.9104 47.393C79.324 50.7055 83.0872 54.4285 85.998 57.4985C87.7382 59.3336 89.9162 60.6628 91.6973 62.7354Z" fill="#B39955"/>
</svg>
