<svg width="49" height="49" viewBox="0 0 49 49" fill="none" xmlns="http://www.w3.org/2000/svg">
<g clip-path="url(#clip0_176_616)">
<path fill-rule="evenodd" clip-rule="evenodd" d="M23.6969 -0.285889C36.7827 -0.285889 47.3902 10.5892 47.3902 24.0067C47.3902 34.7374 40.6092 43.8404 31.2006 47.0556C29.9993 47.2949 29.5729 46.5363 29.5729 45.8895C29.5729 45.0886 29.6013 42.473 29.6013 39.2223C29.6013 36.9572 28.8431 35.4788 27.9925 34.7254C33.269 34.1236 38.8132 32.0692 38.8132 22.7387C38.8132 20.0851 37.8939 17.9196 36.3728 16.2184C36.6192 15.6048 37.4319 13.1339 36.1406 9.7884C36.1406 9.7884 34.1551 9.13747 29.6321 12.2792C27.739 11.7414 25.7108 11.4708 23.6969 11.4613C21.683 11.4708 19.6572 11.7414 17.7665 12.2792C13.2387 9.13747 11.2485 9.7884 11.2485 9.7884C9.96191 13.1339 10.7746 15.6048 11.0186 16.2184C9.50463 17.9196 8.57822 20.0851 8.57822 22.7387C8.57822 32.0455 14.1106 34.1314 19.3729 34.745C18.6953 35.3516 18.0816 36.4216 17.8684 37.9925C16.5178 38.6132 13.087 39.6876 10.9736 35.9748C10.9736 35.9748 9.72023 33.6407 7.34142 33.4701C7.34142 33.4701 5.03132 33.4395 7.1803 34.9463C7.1803 34.9463 8.73222 35.6927 9.81026 38.5003C9.81026 38.5003 11.2011 42.8361 17.7926 41.3671C17.8044 43.3977 17.8257 45.3114 17.8257 45.8895C17.8257 46.5316 17.3897 47.283 16.2075 47.0579C6.79173 43.8475 0.00360107 34.7398 0.00360107 24.0067C0.00360107 10.5892 10.6135 -0.285889 23.6969 -0.285889Z" fill="#36584E"/>
</g>
<defs>
<clipPath id="clip0_176_616">
<rect width="48.9662" height="48.9662" fill="white"/>
</clipPath>
</defs>
</svg>
