<svg width="49" height="49" viewBox="0 0 49 49" fill="none" xmlns="http://www.w3.org/2000/svg">
<path d="M37.8189 5.04492H7.73836C5.90367 5.04492 4.41632 6.53227 4.41632 8.36696V38.4474C4.41632 40.2822 5.90367 41.7696 7.73836 41.7696H37.8188C39.6536 41.7696 41.141 40.2822 41.141 38.4474V8.36696C41.141 6.53227 39.6536 5.04492 37.8189 5.04492ZM15.7805 36.7554C15.7805 37.2893 15.3477 37.7222 14.8137 37.7222H10.6984C10.1645 37.7222 9.73168 37.2893 9.73168 36.7554V19.5043C9.73168 18.9704 10.1645 18.5376 10.6984 18.5376H14.8137C15.3477 18.5376 15.7805 18.9704 15.7805 19.5043V36.7554ZM12.7561 16.9114C10.5969 16.9114 8.84654 15.161 8.84654 13.0019C8.84654 10.8427 10.5969 9.09232 12.7561 9.09232C14.9152 9.09232 16.6656 10.8427 16.6656 13.0019C16.6656 15.161 14.9153 16.9114 12.7561 16.9114ZM37.2868 36.8333C37.2868 37.3242 36.8888 37.7222 36.3979 37.7222H31.9819C31.491 37.7222 31.093 37.3242 31.093 36.8333V28.7415C31.093 27.5344 31.4471 23.4519 27.9385 23.4519C25.2169 23.4519 24.6649 26.2463 24.554 27.5003V36.8333C24.554 37.3242 24.1561 37.7222 23.6651 37.7222H19.3941C18.9032 37.7222 18.5052 37.3242 18.5052 36.8333V19.4265C18.5052 18.9356 18.9032 18.5376 19.3941 18.5376H23.6651C24.156 18.5376 24.554 18.9356 24.554 19.4265V20.9315C25.5632 19.417 27.0629 18.2481 30.2561 18.2481C37.3273 18.2481 37.2868 24.8543 37.2868 28.4841V36.8333Z" fill="#36584E"/>
</svg>
