<svg width="483" height="2" viewBox="0 0 483 2" fill="none" xmlns="http://www.w3.org/2000/svg">
<path d="M270.019 0.379788C280.674 0.512772 289.037 -0.0749931 302.015 0.00808465C314.997 0.0911637 316.922 0.402942 331.79 0.332792C346.645 0.262656 361.481 0.475902 368.134 0.347807C374.753 0.219675 375.363 0.607066 384.84 0.521025C394.212 0.434996 399.924 0.485562 408.142 0.61148C416.221 0.737399 441.738 0.8449 450.706 0.690216C460.068 0.535532 470.382 0.803929 476.724 0.867584C478.667 0.887412 480.175 0.914548 481.327 0.94278C481.814 0.95475 482.039 0.979793 482.039 1.00451C482.039 1.00453 482.039 1.00454 482.039 1.00456C482.039 1.03534 481.691 1.0656 481.064 1.06949C478.019 1.08837 473.406 1.13817 467.755 1.24979C457.645 1.45791 456.187 1.22792 442.505 1.33487C428.445 1.44181 420.142 1.65562 403.893 1.51736C387.482 1.37912 383.761 1.95767 360.671 1.62979C337.629 1.30193 335.171 1.907 312.166 1.98745C289.146 2.06791 260.154 1.73406 246.252 1.76175C232.409 1.78943 213.734 1.85991 194.101 1.78006C174.493 1.70021 150.218 1.90178 128.503 1.7593C106.872 1.61683 76.0457 1.43689 61.9159 1.31631C47.9289 1.19574 44.2362 1.16854 30.7363 1.24221C22.6511 1.28457 11.9165 1.24465 2.86813 1.0889C2.17807 1.0791 1.71325 1.06882 1.37708 1.05823C1.2093 1.05294 1.07432 1.04757 0.963244 1.04214C0.935484 1.04078 0.90923 1.03942 0.884364 1.03806C0.835433 1.0367 0.743706 1.03533 0.684437 1.03396C0.556381 1.03122 0.456336 1.02847 0.376774 1.02571C0.0632244 1.01468 0.0499053 1.0035 0.0397825 0.992363C0.0372895 1.0302 0.0411426 1.01368 0.0412649 1.02431C0.0414773 1.02708 0.0410826 1.02983 0.0404056 1.03258C0.0400759 1.03396 0.0396947 1.03533 0.0393963 1.0367C0.0392476 1.03738 0.0391208 1.03807 0.0390379 1.03875C0.0389964 1.03909 0.0389665 1.03943 0.0389485 1.03977C0.038896 1.03994 0.0390778 1.04011 0.0387829 1.04028C0.0387479 1.04029 0.0387245 1.04029 0.0385733 1.04029C0.03846 1.04029 0.0384739 1.0403 0.0378448 1.04028C0.0271011 1.03052 0.0717091 1.0728 4.25801e-05 1.01052C0.0710554 0.903914 0.0272664 0.976475 0.0378283 0.959724C0.0392918 0.95969 0.0386131 0.959702 0.0388177 0.959692C0.0388823 0.959682 0.038884 0.959671 0.0388964 0.95966C0.0389141 0.959639 0.0389173 0.959618 0.0389217 0.959596C0.038929 0.959554 0.0389313 0.959511 0.0389341 0.959469C0.0389391 0.959383 0.0389429 0.959298 0.0389478 0.959213C0.0428269 0.94831 0.0434707 0.937612 0.266896 0.927289C0.380319 0.922128 0.553364 0.91706 0.831155 0.912108C0.987874 0.907156 1.04986 0.902319 1.1915 0.897619C1.45386 0.888219 1.8087 0.879366 2.30763 0.87123C2.76545 0.863095 3.60954 0.855678 3.98137 0.84915C10.7533 0.77279 16.1002 0.823803 19.7392 0.687406C26.5963 0.414811 29.6624 0.310239 38.4462 0.468899C47.0754 0.62754 51.6311 0.267002 56.4626 0.308499C61.5652 0.350016 61.4857 0.562676 87.5372 0.39883C113.596 0.234979 127.935 0.193171 137.731 0.153835C147.671 0.1145 168.132 0.299067 184.274 0.232449C200.419 0.165834 232.983 0.226887 246.178 0.117825C259.352 0.00877172 259.384 0.246804 270.019 0.379788Z" fill="#B8975B"/>
</svg>
